<svg width="74" height="64" viewBox="0 0 74 64" fill="none" xmlns="http://www.w3.org/2000/svg">
<path d="M42.1957 36.873L29.8953 49.0874L35.2768 53.529L29.3828 63.7788L42.1957 53.8707L42.0249 53.6998L36.8143 48.9166L42.1957 36.873Z" fill="#E69100"/>
<path d="M42.1958 36.873L30.1517 48.9166L35.2769 53.1873L29.7246 63.1809L42.025 53.6998L36.8144 48.5749L42.1958 36.873Z" fill="#FFBB00"/>
<path d="M24.0868 33.3711L11.7864 45.5855L17.1679 50.0271L11.2739 60.2769L24.0868 50.3687L23.916 50.1979L18.7054 45.4146L24.0868 33.3711Z" fill="#E69100"/>
<path d="M24.087 33.3711L12.0428 45.4146L17.168 49.6854L11.6157 59.679L23.9161 50.1979L18.7055 45.073L24.087 33.3711Z" fill="#FFBB00"/>
<path d="M59.9631 33.3711L47.6627 45.5855L53.0441 50.0271L47.1501 60.2769L59.9631 50.3687L59.7922 50.1979L54.5816 45.4146L59.9631 33.3711Z" fill="#E69100"/>
<path d="M59.9632 33.3711L47.919 45.4146L53.0442 49.6854L47.4919 59.679L59.7923 50.1979L54.5818 45.073L59.9632 33.3711Z" fill="#FFBB00"/>
<path d="M60.0484 15.5194C59.1942 15.5194 58.34 15.6048 57.4858 15.6902C55.7774 12.2736 52.019 9.79653 47.5772 9.79653C47.0647 9.79653 46.6376 9.79653 46.125 9.88195C45.4417 5.18411 41.3416 1.59668 36.4727 1.59668C31.86 1.59668 27.9307 4.84245 26.9057 9.19862C26.1369 9.02779 25.2827 8.85697 24.4285 8.85697C19.3034 8.85697 15.2032 12.7007 14.6907 17.6547C13.2386 16.886 11.6156 16.3735 9.90722 16.3735C4.52579 16.3735 0.0839844 20.7297 0.0839844 26.1963C0.0839844 31.5774 4.44037 36.019 9.90722 36.019C10.4197 36.019 10.8468 35.9336 11.3593 35.9336C12.7261 39.6064 16.3137 42.2543 20.4992 42.2543C21.8659 42.2543 23.2326 41.9981 24.3431 41.4856C26.9057 43.9626 31.1766 45.6709 35.9601 45.6709C42.3666 45.6709 47.8334 42.7668 49.5418 38.6669C51.1648 39.8627 53.2149 40.6314 55.4358 40.6314C59.5359 40.6314 63.0381 38.1544 64.4902 34.5669C69.4445 33.2003 73.0322 29.6129 73.0322 25.3421C73.1176 19.9609 67.3091 15.5194 60.0484 15.5194Z" fill="#1A485E"/>
<path d="M60.0484 14.836C59.1942 14.836 58.34 14.9214 57.4858 15.0068C55.7774 11.5902 52.019 9.11319 47.5772 9.11319C47.0647 9.11319 46.6376 9.11318 46.125 9.1986C45.4417 4.50076 41.3416 0.91333 36.4727 0.91333C31.86 0.91333 27.9307 4.1591 26.9057 8.51528C26.1369 8.34444 25.2827 8.17362 24.4285 8.17362C19.3034 8.17362 15.2032 12.0173 14.6907 16.9714C13.2386 16.2026 11.6156 15.6902 9.90722 15.6902C4.52579 15.6902 0.0839844 20.0463 0.0839844 25.5129C0.0839844 30.8941 4.44037 35.3356 9.90722 35.3356C10.4197 35.3356 10.8468 35.2502 11.3593 35.2502C12.7261 38.9231 16.3137 41.571 20.4992 41.571C21.8659 41.571 23.2326 41.3147 24.3431 40.8022C26.9057 43.2793 31.1766 44.9876 35.9601 44.9876C42.3666 44.9876 47.8334 42.0834 49.5418 37.9835C51.1648 39.1793 53.2149 39.9481 55.4358 39.9481C59.5359 39.9481 63.0381 37.3856 64.4902 33.8836C69.4445 32.5169 73.0322 28.9295 73.0322 24.6588C73.1176 19.2776 67.3091 14.836 60.0484 14.836Z" fill="#276C8D"/>
<path opacity="0.15" d="M36.6435 22.9504C50.2252 22.9504 62.6964 24.4879 72.7759 27.0504C73.0322 26.2816 73.203 25.5129 73.203 24.6587C73.203 19.2776 67.3091 14.836 60.1339 14.836C59.2797 14.836 58.4255 14.9214 57.5713 15.0068C55.8629 11.5902 52.1044 9.11319 47.6626 9.11319C47.1501 9.11319 46.723 9.11318 46.2105 9.1986C45.5271 4.50076 41.427 0.91333 36.5581 0.91333C31.9455 0.91333 28.0162 4.1591 26.9911 8.51527C26.2224 8.34444 25.3682 8.17362 24.514 8.17362C19.3888 8.17362 15.2887 12.0173 14.7762 16.9714C13.324 16.2026 11.7011 15.6902 9.99267 15.6902C4.61124 15.6902 0.169434 20.0463 0.169434 25.5129C0.169434 26.0254 0.254853 26.5379 0.254853 27.0504C10.3343 24.4879 22.9764 22.9504 36.6435 22.9504Z" fill="#7F8C8D"/>
</svg>
