<svg width="96" height="72" viewBox="0 0 96 72" fill="none" xmlns="http://www.w3.org/2000/svg">
<path d="M34.6711 14.8599C23.3957 14.8599 14.1704 23.9993 14.1704 35.3595C14.1704 46.6343 23.3103 55.8591 34.6711 55.8591C45.9464 55.8591 55.1717 46.7197 55.1717 35.3595C55.1717 23.9993 46.0318 14.8599 34.6711 14.8599Z" fill="#E69100"/>
<path d="M57.1365 44.5843L69.0098 35.1033L68.6681 34.847L56.9656 25.6222L58.4178 11.0162L43.8965 12.5536L34.6712 1.36426L25.4459 12.6391L10.8391 11.0162L12.3767 25.7076L0.759641 34.847L0.417969 35.1033L12.2913 44.6698L10.6683 58.9341L10.5829 59.4466L25.1042 57.9091L34.5857 69.611L44.0673 57.9091L58.5886 59.532L57.1365 44.5843ZM43.9819 57.2258C41.0776 58.1654 37.9171 59.0195 34.6712 59.0195C31.4252 59.0195 28.3501 58.0799 25.4459 57.2258C22.7124 55.8591 20.2353 54.4071 17.929 52.1009C15.6226 49.7947 13.8288 47.3176 12.4621 44.5843C11.5225 41.6802 11.01 38.6053 11.01 35.3595C11.01 32.1137 11.5225 29.0388 12.4621 26.1347C13.8288 23.4014 15.708 20.8389 17.929 18.6181C20.2353 16.3119 22.7124 14.5182 25.4459 13.1516C28.3501 12.212 31.4252 11.6995 34.6712 11.6995C37.9171 11.6995 40.9922 12.212 43.8965 13.1516C46.6299 14.5182 49.1925 16.3973 51.4134 18.6181C53.7197 20.9243 55.5135 23.4014 56.8802 26.1347C57.8198 29.0388 58.3323 32.1137 58.3323 35.3595C58.3323 38.6053 57.8198 41.6802 56.8802 44.5843C55.5135 47.3176 53.6343 49.8801 51.4134 52.1009C49.1925 54.3217 46.7153 55.7737 43.9819 57.2258Z" fill="#E69100"/>
<path d="M55.172 34.8471C55.172 46.1219 46.0321 55.3467 34.6713 55.3467C23.3959 55.3467 14.1707 46.2073 14.1707 34.8471C14.1707 23.5723 23.3105 14.3474 34.6713 14.3474C46.0321 14.3474 55.172 23.4868 55.172 34.8471Z" fill="#FFBB00"/>
<path d="M57.1365 44.0719L68.6682 34.7616L57.1365 25.4514L58.7595 10.6746L43.982 12.2974L34.6712 0.851807L25.3605 12.3829L10.583 10.76L12.2059 25.5368L0.674316 34.847L12.2059 44.1573L10.583 58.9341L25.3605 57.3112L34.6712 68.8423L43.982 57.3112L58.7595 58.9341L57.1365 44.0719ZM43.8965 57.055C40.9923 57.9946 37.9172 58.5071 34.6712 58.5071C31.4253 58.5071 28.3502 57.9946 25.446 57.055C22.7125 55.6883 20.1499 53.8092 17.929 51.5884C15.6227 49.2822 13.8289 46.8052 12.4622 44.0719C11.5226 41.1678 11.0101 38.0928 11.0101 34.847C11.0101 31.6013 11.5226 28.5263 12.4622 25.6222C13.8289 22.8889 15.7081 20.3265 17.929 18.1057C20.2354 15.7995 22.7125 14.0057 25.446 12.6391C28.3502 11.6995 31.4253 11.187 34.6712 11.187C37.9172 11.187 40.9923 11.6995 43.8965 12.6391C46.63 14.0057 49.1925 15.8849 51.4134 18.1057C53.7198 20.4119 55.5136 22.8889 56.8803 25.6222C57.8199 28.5263 58.3324 31.6013 58.3324 34.847C58.3324 38.0928 57.8199 41.1678 56.8803 44.0719C55.5136 46.8052 53.6344 49.3676 51.4134 51.5884C49.1925 53.8092 46.63 55.6029 43.8965 57.055Z" fill="#FFBB00"/>
<path opacity="0.2" d="M34.671 34.8471C41.8463 34.8471 48.6798 35.2741 55.0863 35.9575C55.0863 35.6158 55.0863 35.1887 55.0863 34.8471C55.0863 23.5723 45.9464 14.3474 34.5856 14.3474C23.3103 14.3474 14.085 23.4868 14.085 34.8471C14.085 35.1887 14.085 35.6158 14.085 35.9575C20.6623 35.1887 27.5812 34.8471 34.671 34.8471Z" fill="#FFBB00"/>
<path opacity="0.2" d="M4.00567 37.4095C6.312 36.9824 8.70374 36.6408 11.0955 36.2991C11.0955 35.7866 11.0101 35.2741 11.0101 34.7616C11.0101 31.5159 11.5226 28.4409 12.4622 25.5368C13.8289 22.8035 15.7081 20.2411 17.929 18.0203C20.2354 15.714 22.7125 13.9203 25.446 12.5537C28.3502 11.6141 31.4253 11.1016 34.6712 11.1016C37.9172 11.1016 40.9923 11.6141 43.8965 12.5537C46.63 13.9203 49.1925 15.7995 51.4134 18.0203C53.7198 20.3265 55.5136 22.8035 56.8803 25.5368C57.8199 28.4409 58.3324 31.5159 58.3324 34.7616C58.3324 35.2741 58.3324 35.7866 58.247 36.2991C60.7242 36.6408 63.1159 36.9824 65.3368 37.4095L68.5828 34.7616L57.0511 25.4514L58.6741 10.6746L43.8965 12.2974L34.6712 0.851807L25.3605 12.3829L10.583 10.76L12.2059 25.5368L0.674316 34.847L4.00567 37.4095Z" fill="#FFBB00"/>
<path d="M83.6166 43.5593C82.8478 43.5593 82.079 43.6447 81.3957 43.7302C79.9435 40.4844 76.5267 38.1782 72.6829 38.1782C72.2558 38.1782 71.8287 38.1782 71.4016 38.2636C70.8036 33.822 67.216 30.4054 62.8596 30.4054C58.7595 30.4054 55.3427 33.4803 54.4031 37.5803C53.7198 37.4094 52.951 37.2386 52.1822 37.2386C47.655 37.2386 43.982 40.9115 43.5549 45.6093C42.2736 44.8406 40.8214 44.4135 39.3693 44.4135C34.5858 44.4135 30.7419 48.5134 30.7419 53.6383C30.7419 58.7632 34.5858 62.8632 39.3693 62.8632C39.7964 62.8632 40.2235 62.7777 40.6506 62.7777C41.9319 66.2798 45.007 68.7568 48.7654 68.7568C49.9613 68.7568 51.1572 68.5006 52.1822 67.9881C54.4885 70.3797 58.247 71.9172 62.4325 71.9172C68.1556 71.9172 72.9391 69.1839 74.4767 65.3402C75.9288 66.4506 77.7226 67.2193 79.6873 67.2193C83.2749 67.2193 86.4354 64.8277 87.7167 61.4965C92.1585 60.2153 95.2336 56.7987 95.2336 52.8696C95.1482 47.6593 89.9376 43.5593 83.6166 43.5593Z" fill="#A3BAD4"/>
<path d="M83.6166 42.9614C82.8478 42.9614 82.079 43.0468 81.3957 43.1323C79.9435 39.8865 76.5267 37.5803 72.6829 37.5803C72.2558 37.5803 71.8287 37.5803 71.4016 37.6657C70.8036 33.2241 67.216 29.8075 62.8596 29.8075C58.7595 29.8075 55.3427 32.8824 54.4031 36.9824C53.7198 36.8115 52.951 36.6407 52.1822 36.6407C47.655 36.6407 43.982 40.3136 43.5549 45.0114C42.2736 44.2427 40.8214 43.8156 39.3693 43.8156C34.5858 43.8156 30.7419 47.9155 30.7419 53.0404C30.7419 58.1653 34.5858 62.2653 39.3693 62.2653C39.7964 62.2653 40.2235 62.1798 40.6506 62.1798C41.9319 65.6819 45.007 68.1589 48.7654 68.1589C49.9613 68.1589 51.1572 67.9027 52.1822 67.3902C54.4885 69.7818 58.247 71.3193 62.4325 71.3193C68.1556 71.3193 72.9391 68.586 74.4767 64.7423C75.9288 65.9381 77.7226 66.6214 79.6873 66.6214C83.2749 66.6214 86.4354 64.2298 87.7167 60.8986C92.1585 59.6174 95.2336 56.2008 95.2336 52.2717C95.1482 47.0614 89.9376 42.9614 83.6166 42.9614Z" fill="#B8D9FF"/>
<path opacity="0.2" d="M62.9451 50.478C74.9038 50.478 86.0083 51.93 94.8065 54.4071C95.0628 53.7237 95.1482 52.955 95.1482 52.1863C95.1482 47.0614 89.9376 42.9614 83.6166 42.9614C82.8478 42.9614 82.079 43.0468 81.3957 43.1323C79.9435 39.8865 76.5267 37.5803 72.6829 37.5803C72.2558 37.5803 71.8287 37.5803 71.4016 37.6657C70.8036 33.2241 67.216 29.8075 62.8596 29.8075C58.7595 29.8075 55.3427 32.8824 54.4031 36.9824C53.7198 36.8115 52.951 36.6407 52.1822 36.6407C47.655 36.6407 43.982 40.3136 43.5549 45.0114C42.2736 44.2427 40.8214 43.8156 39.3693 43.8156C34.5858 43.8156 30.7419 47.9155 30.7419 53.0404C30.7419 53.5529 30.8274 53.98 30.8274 54.4925C39.711 52.0154 50.8155 50.478 62.9451 50.478Z" fill="#B8D9FF"/>
</svg>
