<svg width="77" height="66" viewBox="0 0 77 66" fill="none" xmlns="http://www.w3.org/2000/svg">
<path d="M17.1433 15.4103C17.9121 15.4103 18.7663 15.4103 19.4497 15.4957C20.8164 12.25 24.2332 9.85835 28.3333 9.68752C28.7604 9.68752 29.2729 9.68752 29.7 9.68752C30.1271 5.33134 33.8001 1.82932 38.2419 1.65849C42.5129 1.48766 46.2714 4.30636 47.3818 8.23546C48.0652 7.97922 48.8339 7.8938 49.6881 7.80838C54.3862 7.63755 58.4009 10.9687 58.9989 15.5812C60.2801 14.8124 61.7323 14.2999 63.3552 14.2145C68.3096 13.9583 72.5805 17.8874 72.7514 22.8415C73.0076 27.7955 69.0783 32.0663 64.124 32.2371C63.6969 32.2371 63.1844 32.2371 62.7573 32.1517C61.6469 35.6537 58.4009 38.2162 54.5571 38.387C53.2758 38.4724 52.0799 38.2162 50.9694 37.7891C48.6631 40.1807 44.8192 41.889 40.3774 42.0599C34.4835 42.3161 29.2729 39.8391 27.5645 36.1662C26.1124 37.362 24.2331 38.1308 22.2685 38.2162C18.51 38.387 15.1787 36.1662 13.6412 33.0059C9.02851 31.8955 5.35547 30.2726 5.35547 24.8914C5.52631 20.0227 10.4806 15.752 17.1433 15.4103Z" fill="#1A485E"/>
<path d="M17.1433 14.727C17.9121 14.727 18.7663 14.727 19.4497 14.8124C20.8164 11.5666 24.2332 9.175 28.3333 9.00417C28.7604 9.00417 29.2729 9.00417 29.7 9.00417C30.1271 4.64799 33.8001 1.14597 38.2419 0.975139C42.5129 0.804309 46.2714 3.62301 47.3818 7.5521C48.0652 7.29586 48.8339 7.21044 49.6881 7.12503C54.3862 6.9542 58.4009 10.2854 58.9989 14.8978C60.2801 14.1291 61.7323 13.6166 63.3552 13.5312C68.3096 13.2749 72.5805 17.204 72.7514 22.1581C73.0076 27.1122 69.0783 31.3829 64.124 31.5538C63.6969 31.5538 63.1844 31.5538 62.7573 31.4684C61.6469 34.9704 58.4009 37.5328 54.5571 37.7037C53.2758 37.7891 52.0799 37.5328 50.9694 37.1058C48.6631 39.4974 44.8192 41.2057 40.3774 41.4619C34.4835 41.7182 29.2729 39.2411 27.5645 35.5683C26.1124 36.7641 24.2331 37.5328 22.2685 37.6182C18.51 37.7891 15.1787 35.5683 13.6412 32.4079C9.02851 31.2975 5.35547 29.6746 5.35547 24.2935C5.52631 19.254 10.4806 14.9832 17.1433 14.727Z" fill="#276C8D"/>
<path opacity="0.15" d="M39.1816 21.9019C51.7383 21.9019 63.2699 23.0123 72.4952 24.9769C72.7514 24.1227 72.8369 23.0977 72.8369 22.1582C72.5806 17.2041 68.3951 13.275 63.4407 13.5312C61.8178 13.6166 60.3656 14.1291 59.0843 14.8979C58.401 10.3709 54.3863 6.95426 49.7736 7.12509C49.0048 7.12509 48.2361 7.29592 47.4673 7.55217C46.3568 3.62307 42.6838 0.718955 38.3274 0.9752C33.8002 1.14603 30.2126 4.64805 29.7855 9.00423C29.3584 9.00423 28.9313 8.91881 28.4188 9.00423C24.3186 9.17506 20.9019 11.5667 19.5351 14.8125C18.7664 14.727 17.9976 14.727 17.2288 14.727C10.5661 14.9833 5.52637 19.3395 5.52637 24.2935C5.52637 24.5498 5.52637 24.806 5.52637 25.0623C14.8371 23.0977 26.5395 21.9019 39.1816 21.9019Z" fill="#7F8C8D"/>
<path d="M60.1947 27.1122C62.7573 28.3935 65.9178 27.2831 67.1137 24.7206C67.2845 24.379 67.4554 23.9519 67.5408 23.6102C67.9679 24.1227 68.4804 24.4644 69.0783 24.806C71.6409 26.0873 74.8014 24.9769 75.9973 22.4144C77.2786 19.852 76.1681 16.6916 73.6056 15.4958C73.3493 15.4104 73.1785 15.325 72.9222 15.2395C73.4347 14.727 73.8618 14.1291 74.2035 13.4458C75.6556 10.4563 74.3743 6.86885 71.3847 5.41679C69.3346 4.47723 67.1137 4.73347 65.4053 5.84387C64.9782 5.50221 64.5511 5.16055 64.0386 4.9043C61.476 3.62308 58.3155 4.73348 57.1196 7.29593C56.18 9.26048 56.5217 11.4813 57.8884 13.0187C56.3508 13.3604 54.9841 14.3 54.2154 15.8374C52.9341 18.3999 54.0445 21.5603 56.6071 22.7561C56.7779 22.8415 56.9488 22.9269 57.205 23.0123C57.4613 24.7206 58.4863 26.2581 60.1947 27.1122Z" fill="#1E546E"/>
<path d="M60.1947 26.4289C62.7573 27.7101 65.9178 26.5997 67.1137 24.0373C67.2845 23.6956 67.4554 23.2685 67.5408 22.9269C67.9679 23.4394 68.4804 23.781 69.0783 24.1227C71.6409 25.4039 74.8014 24.2935 75.9973 21.7311C77.2786 19.1686 76.1681 16.0082 73.6056 14.8124C73.3493 14.727 73.1785 14.6416 72.9222 14.5562C73.4347 14.0437 73.8618 13.4458 74.2035 12.7625C75.6556 9.77294 74.3743 6.18551 71.3847 4.73345C69.3346 3.79388 67.1137 4.05013 65.4053 5.16053C64.9782 4.81887 64.5511 4.4772 64.0386 4.22095C61.476 2.93973 58.3155 4.05013 57.1196 6.61258C56.18 8.57713 56.5217 10.7979 57.8884 12.3354C56.3508 12.6771 54.9841 13.6166 54.2154 15.1541C52.9341 17.7166 54.0445 20.8769 56.6071 22.0727C56.7779 22.1581 56.9488 22.2436 57.205 22.329C57.4613 23.9519 58.4863 25.5747 60.1947 26.4289Z" fill="#0A8BC9"/>
<path opacity="0.1" d="M65.1492 15.2396C68.7368 15.2396 72.0681 15.4104 75.1432 15.7521C74.7161 15.325 74.2036 14.8979 73.6057 14.6417C73.3494 14.5562 73.1786 14.4708 72.9223 14.3854C73.4348 13.8729 73.8619 13.275 74.2036 12.5917C75.6557 9.60216 74.3744 6.01473 71.3848 4.56267C69.3347 3.6231 67.1138 3.87935 65.4054 4.98974C64.9783 4.64808 64.5512 4.30642 64.0387 4.05018C61.4761 2.76895 58.3156 3.87935 57.1197 6.44181C56.1801 8.40635 56.5218 10.6271 57.8885 12.1646C56.351 12.5063 54.9843 13.4459 54.2155 14.9833C54.0446 15.2396 53.9592 15.5812 53.8738 15.8375C57.2906 15.4958 61.1344 15.2396 65.1492 15.2396Z" fill="#9AAAAB"/>
<path d="M36.2772 29.7602C35.8501 25.2332 30.2979 22.5853 26.454 24.8061C25.8561 20.7062 22.3538 17.6312 18.0829 17.6312C14.0682 17.6312 10.7368 20.4499 9.8826 24.2082C9.19924 24.0374 8.51589 23.9519 7.74711 23.9519C3.39072 23.9519 -0.196886 27.6248 0.571889 31.8101C2.62195 43.1704 37.5585 42.9141 36.2772 29.7602Z" fill="#205A75"/>
<path d="M36.2772 28.9914C35.8501 24.4644 30.2979 21.8165 26.454 24.0373C25.8561 19.9374 22.3538 16.8624 18.0829 16.8624C14.0682 16.8624 10.7368 19.6811 9.8826 23.4394C9.19924 23.2686 8.51589 23.1831 7.74711 23.1831C3.39072 23.1831 -0.196886 26.856 0.571889 31.0414C2.62195 42.4016 37.5585 42.0599 36.2772 28.9914Z" fill="#1981B3"/>
<path opacity="0.1" d="M18.3392 28.8205C24.9165 28.8205 31.1521 29.2476 36.3626 30.0164C36.3626 29.6747 36.3626 29.333 36.3626 28.9914C35.9356 24.4644 30.3833 21.8165 26.5394 24.0373C25.9415 19.9374 22.4393 16.8624 18.1683 16.8624C14.1536 16.8624 10.8222 19.6811 9.96806 23.4394C9.2847 23.2686 8.60135 23.1831 7.83257 23.1831C3.81786 23.1831 0.4865 26.2581 0.571919 30.1018C5.69708 29.2476 11.7619 28.8205 18.3392 28.8205Z" fill="#8A9899"/>
<path d="M24.0623 53.5909L23.6352 53.1638H23.7206C24.1477 52.993 24.404 52.5659 24.3186 52.0534C24.1477 51.6264 23.7206 51.3701 23.2081 51.4555L22.6102 51.6264L22.0977 51.7972L20.9018 50.6868L22.4393 50.1743L22.781 50.516L23.3789 51.0285C23.7206 51.2847 24.2331 51.1993 24.5748 50.943C24.9165 50.6014 24.9165 50.0889 24.5748 49.7472L24.404 49.5764L24.9165 49.4056C25.3436 49.2347 25.5999 48.8077 25.5144 48.2952C25.3436 47.8681 24.9165 47.5264 24.404 47.6973L23.8915 47.8681V47.7827C23.9769 47.2702 23.7206 46.8431 23.2081 46.7577C22.6956 46.6723 22.2685 46.9285 22.1831 47.441L22.0122 48.0389L21.9268 48.5514L20.3893 49.0639L20.7309 47.441L21.2435 47.2702L22.0122 47.0139C22.4393 46.8431 22.6102 46.416 22.5248 45.989C22.3539 45.5619 21.9268 45.3056 21.4997 45.3911L21.2435 45.4765L21.3289 44.8786C21.4143 44.3661 21.158 43.939 20.6455 43.8536C20.133 43.7682 19.7059 44.0244 19.6205 44.5369L19.5351 45.1348L19.4496 45.0494C19.108 44.7077 18.51 44.7077 18.1684 45.1348C17.8267 45.4765 17.8267 46.0744 18.2538 46.416L18.7663 46.8431L19.108 47.1848L18.7663 48.8077L17.5704 47.6973L17.6558 47.1848L17.8267 46.416C17.8267 45.989 17.5704 45.5619 17.1433 45.4765C16.7162 45.3911 16.2891 45.6473 16.1183 45.989L16.0329 46.2452L15.6058 45.8181C15.2641 45.4765 14.6662 45.4765 14.3245 45.9035C13.9828 46.2452 13.9828 46.8431 14.4099 47.1848L14.837 47.6119H14.7516C14.3245 47.7827 14.0682 48.2098 14.1536 48.7223C14.3245 49.1493 14.7516 49.4056 15.2641 49.3202L15.862 49.1493L16.3745 48.9785L17.5704 50.0889L16.0329 50.6014L15.6912 50.2597L15.0933 49.7472C14.7516 49.491 14.2391 49.5764 13.8974 49.8327C13.5557 50.1743 13.5557 50.6868 13.8974 51.0285L14.0682 51.1993L13.5557 51.3701C13.1286 51.5409 12.7869 51.968 12.9578 52.4805C13.1286 52.9076 13.5557 53.1638 14.0682 53.0784L14.5807 52.9076V52.993C14.4953 53.5055 14.7516 53.9326 15.2641 54.018C15.7766 54.1034 16.2037 53.8472 16.2891 53.3347L16.46 52.7368L16.5454 52.2243L18.0829 51.7118L17.7413 53.3347L17.2287 53.5055L16.46 53.7617C16.0329 53.9326 15.862 54.3596 15.9474 54.7867C16.1183 55.2138 16.5454 55.4701 16.9725 55.3846L17.2287 55.2992L17.1433 55.8971C17.0579 56.4096 17.3142 56.8367 17.8267 56.9221C18.3392 57.0075 18.7663 56.7513 18.8517 56.2388L18.9371 55.6409L19.0226 55.7263C19.3642 56.068 19.9622 56.0679 20.3038 55.6409C20.6455 55.2992 20.6455 54.7013 20.2184 54.3596L19.7059 53.9326L19.3642 53.5909L19.7059 51.968L20.9018 53.0784L20.8164 53.5909L20.6455 54.3596C20.6455 54.7867 20.9018 55.2138 21.3289 55.2992C21.756 55.3846 22.1831 55.1284 22.3539 54.7867L22.4393 54.5305L22.8664 54.9576C23.2081 55.2992 23.806 55.2992 24.1477 54.8721C24.404 54.4451 24.404 53.8472 24.0623 53.5909Z" fill="#007DC4"/>
<path d="M24.0623 53.2493L23.6352 52.8222H23.7206C24.1477 52.6513 24.4894 52.2243 24.3186 51.7118C24.1477 51.2847 23.7206 51.0285 23.2081 51.1139L22.6102 51.2847L22.0977 51.4555L20.9018 50.3451L22.4393 49.8326L22.781 50.1743L23.3789 50.6868C23.7206 50.943 24.2331 50.8576 24.5748 50.6014C24.9165 50.2597 24.9165 49.7472 24.5748 49.4056L24.404 49.2347L24.9165 49.0639C25.3436 48.8931 25.5999 48.466 25.5144 47.9535C25.3436 47.5264 24.9165 47.1848 24.404 47.3556L23.8915 47.5264V47.441C23.9769 46.9285 23.7206 46.5015 23.2081 46.416C22.6956 46.3306 22.2685 46.5869 22.1831 47.0993L22.0122 47.6973L21.9268 48.2097L20.3893 48.7222L20.7309 47.0993L21.2435 46.9285L22.0122 46.6723C22.4393 46.5014 22.6102 46.0744 22.5248 45.6473C22.3539 45.2202 21.9268 44.964 21.4997 45.0494L21.2435 45.1348L21.3289 44.5369C21.4143 44.0244 21.158 43.5973 20.6455 43.5119C20.133 43.4265 19.7059 43.6827 19.6205 44.1952L19.5351 44.7931L19.4496 44.6223C19.108 44.2807 18.51 44.2807 18.1684 44.7077C17.8267 45.0494 17.8267 45.6473 18.2538 45.989L18.7663 46.416L19.108 46.7577L18.7663 48.3806L17.5704 47.2702L17.6558 46.7577L17.8267 45.989C17.8267 45.5619 17.5704 45.1348 17.1433 45.0494C16.7162 44.964 16.2891 45.2202 16.1183 45.5619L16.0329 45.8181L15.6058 45.391C15.2641 45.0494 14.6662 45.0494 14.3245 45.4765C13.9828 45.8181 13.9828 46.416 14.4099 46.7577L14.837 47.1848H14.7516C14.3245 47.3556 14.0682 47.7827 14.1536 48.2952C14.3245 48.7222 14.7516 48.9785 15.2641 48.8931L15.862 48.7222L16.3745 48.5514L17.5704 49.6618L16.0329 50.1743L15.6912 49.8326L15.0933 49.3201C14.7516 49.0639 14.2391 49.1493 13.8974 49.4056C13.5557 49.7472 13.5557 50.2597 13.8974 50.6014L14.0682 50.7722L13.5557 50.943C13.1286 51.1139 12.7869 51.5409 12.9578 52.0534C13.1286 52.4805 13.5557 52.8222 14.0682 52.6513L14.5807 52.4805V52.5659C14.4953 53.0784 14.7516 53.5055 15.2641 53.5909C15.7766 53.6763 16.2037 53.4201 16.2891 52.9076L16.46 52.3097L16.5454 51.7972L18.0829 51.2847L17.7413 52.9076L17.2287 53.0784L16.46 53.3347C16.0329 53.5055 15.862 53.9326 15.9474 54.3596C16.1183 54.7867 16.5454 55.043 16.9725 54.9576L17.2287 54.8721L17.1433 55.47C17.0579 55.9825 17.3142 56.4096 17.8267 56.495C18.3392 56.5804 18.7663 56.3242 18.8517 55.8117L18.9371 55.2138L19.0226 55.2992C19.3642 55.6409 19.9622 55.6409 20.3038 55.2138C20.6455 54.8721 20.6455 54.2742 20.2184 53.9326L19.7059 53.5055L19.3642 53.1638L19.7059 51.5409L20.9018 52.6513L20.8164 53.1638L20.6455 53.9326C20.6455 54.3596 20.9018 54.7867 21.3289 54.8721C21.756 54.9575 22.1831 54.7013 22.3539 54.3596L22.4393 54.1034L22.8664 54.5305C23.2081 54.8721 23.806 54.8721 24.1477 54.4451C24.4894 54.1034 24.4894 53.5909 24.0623 53.2493Z" fill="#00A2FF"/>
<path opacity="0.2" d="M14.4098 46.6723L14.8369 47.0994H14.7515C14.3244 47.2702 14.0682 47.6973 14.1536 48.2098C14.3244 48.6369 14.7515 48.8931 15.264 48.8077L15.862 48.6369L16.3745 48.466L17.2287 49.2348C17.912 49.3202 18.6808 49.491 19.4496 49.6618C20.2184 49.8327 20.9017 50.0035 21.5851 50.2597L22.6101 49.9181L22.9518 50.2597L23.5497 50.7722C23.8914 51.0285 24.4039 50.9431 24.7456 50.6868C25.0873 50.3452 25.0873 49.8327 24.7456 49.491L24.5748 49.3202L25.0873 49.1493C25.5144 48.9785 25.7706 48.5514 25.6852 48.0389C25.5144 47.6119 25.0873 47.2702 24.5748 47.441L24.0622 47.6119V47.5265C24.1477 47.014 23.8914 46.5869 23.3789 46.5015C22.8664 46.4161 22.4393 46.6723 22.3538 47.1848L22.183 47.7827L22.0976 48.2952L20.56 48.8077L20.9017 47.1848L21.4142 47.014L22.183 46.7577C22.6101 46.5869 22.7809 46.1598 22.6955 45.7327C22.5247 45.3057 22.0976 45.0494 21.6705 45.1348L21.4142 45.2202L21.4996 44.6223C21.5851 44.1099 21.3288 43.6828 20.8163 43.5974C20.3038 43.5119 19.8767 43.7682 19.7913 44.2807L19.7058 44.8786L19.4496 44.6223C19.1079 44.2807 18.51 44.2807 18.1683 44.7078C17.8266 45.0494 17.8266 45.6473 18.2537 45.989L18.7662 46.4161L19.1079 46.7577L18.7662 48.3806L17.5704 47.2702L17.6558 46.7577L17.8266 45.989C17.8266 45.5619 17.5703 45.1348 17.1433 45.0494C16.7162 44.964 16.2891 45.2203 16.1182 45.5619L16.0328 45.8181L15.6057 45.3911C15.264 45.0494 14.6661 45.0494 14.3244 45.4765C14.0682 45.8182 14.0682 46.3306 14.4098 46.6723Z" fill="#B8D9FF"/>
<path d="M63.9532 53.4201L63.5261 52.9931H63.6115C64.0386 52.8222 64.2948 52.3952 64.2094 51.8827C64.0386 51.4556 63.6115 51.1994 63.099 51.2848L62.501 51.4556L61.9885 51.6264L60.7926 50.516L62.3302 50.0035L62.6719 50.3452L63.2698 50.8577C63.6115 51.1139 64.124 51.0285 64.4657 50.7723C64.8074 50.4306 64.8074 49.9181 64.4657 49.5765L64.2948 49.4056L64.8074 49.2348C65.2345 49.064 65.4907 48.6369 65.4053 48.1244C65.2344 47.6973 64.8074 47.3557 64.2948 47.5265L63.7823 47.6973V47.6119C63.8677 47.0994 63.6115 46.6724 63.099 46.5869C62.5865 46.5015 62.1593 46.7578 62.0739 47.2703L61.9031 47.8682L61.8177 48.3806L60.2801 48.8931L60.6218 47.2703L61.1343 47.0994L61.9031 46.8432C62.3302 46.6724 62.501 46.2453 62.4156 45.8182C62.2448 45.3911 61.8177 45.1349 61.3906 45.2203L61.1343 45.3057L61.2197 44.7078C61.3052 44.1953 61.0489 43.7682 60.5364 43.6828C60.0239 43.5974 59.5968 43.8536 59.5113 44.3661L59.4259 44.964L59.3405 44.8786C58.9988 44.537 58.4009 44.537 58.0592 44.964C57.7176 45.3057 57.7175 45.9036 58.1446 46.2453L58.6571 46.6723L58.9988 47.014L58.6571 48.6369L57.4613 47.5265L57.5467 47.014L57.7175 46.2453C57.7175 45.8182 57.4613 45.3911 57.0342 45.3057C56.6071 45.2203 56.18 45.4765 56.0091 45.8182L55.9237 46.0744L55.4966 45.6474C55.155 45.3057 54.557 45.3057 54.2154 45.7328C53.8737 46.0744 53.8737 46.6724 54.3008 47.014L54.7279 47.4411H54.6425C54.2154 47.6119 53.8737 48.039 54.0445 48.5515C54.2153 48.9786 54.6424 49.2348 55.1549 49.1494L55.7529 48.9786L56.2654 48.8077L57.4613 49.9181L55.9237 50.4306L55.582 50.0889L54.9841 49.5765C54.6424 49.3202 54.1299 49.4056 53.7883 49.6619C53.4466 50.0035 53.4466 50.516 53.7883 50.8577L53.9591 51.0285L53.4466 51.1993C53.0195 51.3702 52.6778 51.7973 52.8486 52.3097C53.0195 52.7368 53.4466 52.9931 53.9591 52.9077L54.4716 52.7368V52.8222C54.3862 53.3347 54.6424 53.7618 55.1549 53.8472C55.6675 53.9326 56.0946 53.6764 56.18 53.1639L56.3508 52.566L56.4362 52.0535L57.9738 51.541L57.6321 53.1639H57.0342L56.2654 53.4201C55.8383 53.591 55.6675 54.0181 55.7529 54.4451C55.9237 54.8722 56.3508 55.1284 56.7779 55.043L57.0342 54.9576L56.9488 55.5555C56.8633 56.068 57.1196 56.4951 57.6321 56.5805C58.1446 56.6659 58.5717 56.4097 58.6571 55.8972L58.7426 55.2993L58.828 55.3847C59.1697 55.7264 59.7676 55.7264 60.1093 55.2993C60.451 54.9576 60.451 54.3597 60.0239 54.0181L59.5113 53.591L59.1697 53.2493L59.5113 51.6264L60.7072 52.7368L60.6218 53.2493L60.451 54.0181C60.451 54.4451 60.7072 54.8722 61.1343 54.9576C61.5614 55.043 61.9885 54.7868 62.1594 54.4451L62.2448 54.1889L62.6719 54.616C63.0136 54.9576 63.6115 54.9576 63.9532 54.5305C64.2948 54.2743 64.2948 53.7618 63.9532 53.4201Z" fill="#007DC4"/>
<path d="M63.9532 53.0785L63.5261 52.6514H63.6115C64.0386 52.4806 64.2948 52.0535 64.2094 51.541C64.0386 51.1139 63.6115 50.8577 63.099 50.9431L62.501 51.1139L61.9885 51.2848L60.7926 50.1744L62.3302 49.6619L62.6719 50.0035L63.2698 50.516C63.6115 50.7723 64.124 50.6868 64.4657 50.4306C64.8074 50.0889 64.8074 49.5764 64.4657 49.2348L64.2948 49.064L64.8074 48.8931C65.2345 48.7223 65.4907 48.2952 65.4053 47.7827C65.2344 47.3556 64.8074 47.014 64.2948 47.1848L63.7823 47.3556V47.2702C63.8677 46.7577 63.6115 46.3307 63.099 46.2452C62.5865 46.1598 62.1593 46.4161 62.0739 46.9286L61.9031 47.5265L61.8177 48.039L60.2801 48.5515L60.6218 46.9286L61.1343 46.7577L61.9031 46.5015C62.3302 46.3307 62.501 45.9036 62.4156 45.4765C62.2448 45.0494 61.8177 44.7932 61.3906 44.8786L61.1343 44.964L61.2197 44.3661C61.3052 43.8536 61.0489 43.4266 60.5364 43.3411C60.0239 43.2557 59.5968 43.512 59.5113 44.0245L59.4259 44.6224L59.3405 44.5369C58.9988 44.1953 58.4009 44.1953 58.0592 44.6224C57.7176 44.964 57.7175 45.5619 58.1446 45.9036L58.6571 46.3307L58.9988 46.6723L58.6571 48.2952L57.4613 47.1848L57.5467 46.6723L57.7175 45.9036C57.7175 45.4765 57.4613 45.0494 57.0342 44.964C56.6071 44.8786 56.18 45.1349 56.0091 45.4765L55.9237 45.7328L55.4966 45.3057C55.155 44.964 54.557 44.964 54.2154 45.3911C53.8737 45.7328 53.8737 46.3307 54.3008 46.6723L54.7279 47.0994H54.6425C54.2154 47.2702 53.9591 47.6973 54.0445 48.2098C54.2153 48.6369 54.6424 48.8931 55.1549 48.8077L55.7529 48.6369L56.2654 48.466L57.4613 49.5764L55.9237 50.0889L55.582 49.7473L54.9841 49.2348C54.6424 48.9785 54.1299 49.064 53.7883 49.3202C53.4466 49.6619 53.4466 50.1743 53.7883 50.516L53.9591 50.6868L53.4466 50.8577C53.0195 51.0285 52.6778 51.4556 52.8486 51.9681C53.0195 52.3952 53.4466 52.7368 53.9591 52.566L54.4716 52.3952V52.4806C54.3862 52.993 54.6424 53.4201 55.1549 53.5055C55.6675 53.591 56.0946 53.3347 56.18 52.8222L56.3508 52.2243L56.4362 51.7118L57.9738 51.1993L57.6321 52.8222L57.1196 52.9931L56.3508 53.2493C55.9237 53.4201 55.7529 53.8472 55.8383 54.2743C56.0092 54.7014 56.4362 54.9576 56.8633 54.8722L57.1196 54.7868L57.0342 55.3847C56.9488 55.8972 57.205 56.3242 57.7175 56.4097C58.23 56.4951 58.6572 56.2388 58.7426 55.7263L58.828 55.1284L58.9134 55.2138C59.2551 55.5555 59.853 55.5555 60.1947 55.1284C60.5364 54.7868 60.5364 54.1889 60.1093 53.8472L59.5968 53.4201L59.2551 53.0785L59.5968 51.4556L60.7926 52.566L60.7072 53.0785L60.5364 53.8472C60.5364 54.2743 60.7926 54.7013 61.2197 54.7868C61.6468 54.8722 62.0739 54.6159 62.2448 54.2743L62.3302 54.018L62.7573 54.4451C63.099 54.7868 63.6969 54.7868 64.0386 54.3597C64.3803 53.9326 64.3803 53.4201 63.9532 53.0785Z" fill="#00A2FF"/>
<path opacity="0.2" d="M54.3007 46.5015L54.7278 46.9286H54.6424C54.2153 47.0994 53.959 47.5265 54.0444 48.039C54.2153 48.4661 54.6424 48.7223 55.1549 48.6369L55.7528 48.4661L56.2654 48.2952L57.1195 49.064C57.8029 49.1494 58.5717 49.3202 59.3405 49.4911C60.1092 49.6619 60.7926 49.8327 61.4759 50.089L62.501 49.7473L62.8426 50.089L63.4406 50.6015C63.7823 50.8577 64.2948 50.7723 64.6364 50.516C64.9781 50.1744 64.9781 49.6619 64.6364 49.3202L64.4656 49.1494L64.9781 48.9786C65.4052 48.8077 65.6615 48.3807 65.5761 47.8682C65.4052 47.4411 64.9781 47.0994 64.4656 47.2703L63.9531 47.4411V47.3557C64.0385 46.8432 63.7822 46.4161 63.2697 46.3307C62.7572 46.2453 62.3301 46.5015 62.2447 47.014L62.0739 47.6119L61.9884 48.1244L60.4509 48.6369L60.7926 47.014L61.3051 46.8432L62.0739 46.5869C62.501 46.4161 62.6718 45.989 62.5864 45.562C62.4155 45.1349 61.9884 44.8786 61.5613 44.964L61.3051 45.0495L61.3905 44.4516C61.4759 43.9391 61.2197 43.512 60.7071 43.4266C60.1946 43.3412 59.7675 43.5974 59.6821 44.1099L59.5967 44.7078L59.5113 44.6224C59.1696 44.2807 58.5717 44.2807 58.23 44.7078C57.8883 45.0495 57.8883 45.6474 58.3154 45.989L58.8279 46.4161L59.1696 46.7578L58.8279 48.3807L57.6321 47.2703L57.7175 46.7578L57.8883 45.989C57.8883 45.562 57.6321 45.1349 57.205 45.0495C56.7779 44.9641 56.3508 45.2203 56.1799 45.562L56.0945 45.8182L55.6674 45.3911C55.3257 45.0495 54.7278 45.0495 54.3861 45.4765C53.959 45.6474 53.959 46.1599 54.3007 46.5015Z" fill="#B8D9FF"/>
<path d="M46.015 61.022L45.4171 60.5096L45.5879 60.4241C46.2713 60.2533 46.613 59.57 46.3567 58.8867C46.1859 58.2033 45.5025 57.8617 44.8192 58.1179L43.965 58.3742L43.2816 58.545L41.6586 57.0075L43.7941 56.3242L44.3066 56.7513L45.0754 57.52C45.5879 57.8617 46.2713 57.7763 46.6984 57.3492C47.1255 56.9221 47.1255 56.2388 46.7838 55.7263L46.5275 55.4701L47.2963 55.2138C47.9797 55.043 48.3213 54.3597 48.0651 53.6763C47.8942 52.993 47.2109 52.6514 46.5275 52.9076L45.7587 53.1638V52.993C45.9296 52.3097 45.5025 51.7118 44.8192 51.541C44.1358 51.3701 43.5379 51.7972 43.367 52.4805L43.1962 53.3347L43.0253 54.018L40.8899 54.7013L41.4024 52.4805L42.0857 52.3097L43.1108 51.968C43.6233 51.7118 43.9649 51.1139 43.7941 50.516C43.6233 49.9181 43.0253 49.5764 42.4274 49.6618L42.0857 49.7472L42.2566 48.9785C42.4274 48.2952 42.0003 47.6973 41.317 47.5264C40.6336 47.3556 40.0357 47.7827 39.8648 48.466L39.694 49.2347L39.5231 49.1493C39.0106 48.7223 38.2418 48.7223 37.8148 49.2347C37.3877 49.7472 37.3877 50.516 37.9002 50.943L38.5835 51.541L39.096 51.968L38.5835 54.1888L36.9606 52.6513L37.1314 51.968L37.3877 50.943C37.4731 50.3451 37.046 49.7472 36.448 49.6618C35.8501 49.491 35.2522 49.8327 34.9959 50.4306L34.9105 50.7722L34.3126 50.2597C33.8 49.8327 33.0313 49.8327 32.6042 50.3451C32.1771 50.8576 32.1771 51.6264 32.6896 52.0534L33.2875 52.5659L33.1167 52.6513C32.4333 52.8222 32.0917 53.5055 32.3479 54.1888C32.5188 54.8721 33.2021 55.2138 33.8855 54.9576L34.7396 54.7013L35.423 54.5305L37.046 56.068L34.9105 56.7513L34.398 56.3242L33.6292 55.6409C33.1167 55.2992 32.4333 55.3846 32.0062 55.8117C31.5791 56.2388 31.5791 56.9221 31.9208 57.4346L32.1771 57.6909L31.4083 57.9471C30.7249 58.1179 30.3833 58.8012 30.6395 59.4846C30.8104 60.1679 31.4937 60.5096 32.1771 60.2533L32.9458 59.9971V60.1679C32.775 60.8512 33.2021 61.4491 33.8855 61.6199C34.5688 61.7908 35.1668 61.3637 35.3376 60.6804L35.5084 59.8262L35.6793 59.1429L37.8148 58.4596L37.3022 60.6804L36.6189 60.8512L35.5938 61.1929C35.0813 61.4491 34.7397 62.047 34.9105 62.6449C35.0813 63.2428 35.6793 63.5845 36.2772 63.4991L36.6189 63.4137L36.448 64.1824C36.2772 64.8657 36.7043 65.4636 37.3877 65.6345C38.071 65.8053 38.669 65.3782 38.8398 64.6949L39.0106 63.9262L39.1815 64.0116C39.694 64.4386 40.4628 64.4387 40.8899 63.9262C41.317 63.4137 41.3169 62.6449 40.8044 62.2179L40.1211 61.6199L39.6086 61.1929L40.1211 58.9721L41.7441 60.5096L41.5732 61.1929L41.317 62.2179C41.2315 62.8158 41.6586 63.4137 42.2566 63.4991C42.8545 63.6699 43.4524 63.3282 43.7087 62.7303L43.7941 62.3887L44.3921 62.9012C44.9046 63.3282 45.6733 63.3283 46.1004 62.8158C46.5275 62.3033 46.5275 61.5345 46.015 61.022Z" fill="#007DC4"/>
<path d="M46.1005 60.595L45.5025 60.0825L45.6734 59.9971C46.3567 59.8263 46.6984 59.1429 46.4421 58.4596C46.2713 57.7763 45.5879 57.4346 44.9046 57.6909L44.0504 57.9471L43.367 58.118L41.7441 56.5805L43.8796 55.8972L44.3921 56.3242L45.1609 57.0076C45.6734 57.3492 46.3567 57.2638 46.7838 56.8367C47.2109 56.4097 47.2109 55.7263 46.8692 55.2138L46.613 54.9576L47.3818 54.7014C48.0651 54.5305 48.4068 53.8472 48.1505 53.1639C47.9797 52.4806 47.2963 52.1389 46.613 52.3951L45.8442 52.6514V52.4806C46.015 51.7972 45.5879 51.1993 44.9046 51.0285C44.2212 50.8577 43.6233 51.2847 43.4525 51.9681L43.2816 52.8222L43.1108 53.5055L40.9753 54.1889L41.4878 51.9681L42.1712 51.7972L43.1962 51.4556C43.7087 51.1993 44.0504 50.6014 43.8796 50.0035C43.7087 49.4056 43.1108 49.064 42.5128 49.1494L42.1712 49.2348L42.342 48.466C42.5128 47.7827 42.0858 47.1848 41.4024 47.014C40.719 46.8432 40.1211 47.2702 39.9503 47.9535L39.7794 48.7223L39.6086 48.6369C39.0961 48.2098 38.3273 48.2098 37.9002 48.7223C37.4731 49.2348 37.4731 50.0035 37.9856 50.4306L38.669 51.0285L39.1815 51.4556L38.669 53.6764L37.046 52.1389L37.2168 51.4556L37.4731 50.4306C37.5585 49.8327 37.1314 49.2348 36.5335 49.1494C35.9355 48.9785 35.3376 49.3202 35.0813 49.9181L34.9959 50.2598L34.398 49.7473C33.8855 49.3202 33.1167 49.3202 32.6896 49.8327C32.2625 50.3452 32.2625 51.1139 32.775 51.541L33.373 52.0535L33.2021 52.1389C32.5188 52.3097 32.1771 52.9931 32.4334 53.6764C32.6042 54.3597 33.2875 54.7014 33.9709 54.4451L34.8251 54.1889L35.5084 54.018L37.1314 55.5555L34.9959 56.2388L34.4834 55.8118L33.7147 55.1284C33.2021 54.7868 32.5188 54.8722 32.0917 55.2993C31.6646 55.7263 31.6646 56.4096 32.0063 56.9221L32.2625 57.1784L31.4937 57.4346C30.8104 57.6055 30.4687 58.2888 30.725 58.9721C30.8958 59.6554 31.5792 59.9971 32.2625 59.7408L33.0313 59.4846V59.6554C32.8604 60.3388 33.2875 60.9367 33.9709 61.1075C34.6543 61.2783 35.2522 60.8512 35.423 60.1679L35.5939 59.3138L35.7647 58.6304L37.9002 57.9471L37.3877 60.1679L36.7043 60.3387L35.6793 60.6804C35.1668 60.9367 34.8251 61.5346 34.9959 62.1325C35.1668 62.7304 35.7647 63.072 36.3626 62.9866L36.7043 62.9012L36.5335 63.6699C36.3626 64.3533 36.7897 64.9512 37.4731 65.122C38.1565 65.2928 38.7544 64.8657 38.9252 64.1824L39.0961 63.4137L39.2669 63.4991C39.7794 63.9262 40.5482 63.9262 40.9753 63.4137C41.4024 62.9012 41.4024 62.1325 40.8899 61.7054L40.2065 61.1075L39.694 60.6804L40.2065 58.4596L41.8295 59.9971L41.6587 60.6804L41.4024 61.7054C41.317 62.3033 41.7441 62.9012 42.342 62.9866C42.9399 63.1575 43.5379 62.8158 43.7941 62.2179L43.8796 61.8762L44.4775 62.3887C44.99 62.8158 45.7588 62.8158 46.1859 62.3033C46.6984 61.7908 46.613 61.0221 46.1005 60.595Z" fill="#00A2FF"/>
<path opacity="0.2" d="M32.7749 51.541L33.3728 52.0535L33.202 52.1389C32.5186 52.3098 32.177 52.9931 32.4332 53.6764C32.6041 54.3597 33.2874 54.7014 33.9708 54.4451L34.825 54.1889L35.5083 54.0181L36.6188 55.043C37.6438 55.2139 38.5834 55.3847 39.6085 55.641C40.6335 55.8972 41.6585 56.1535 42.5981 56.4097L44.0502 55.9826L44.5628 56.4097L45.3315 57.093C45.8441 57.4347 46.5274 57.3493 46.9545 56.9222C47.3816 56.4951 47.3816 55.8118 47.0399 55.2993L46.7837 55.043L47.5524 54.7868C48.2358 54.616 48.5775 53.9327 48.3212 53.2493C48.1504 52.566 47.467 52.2243 46.7837 52.4806L46.0149 52.7368V52.566C46.1857 51.8827 45.7586 51.2848 45.0753 51.114C44.3919 50.9431 43.794 51.3702 43.6231 52.0535L43.4523 52.9077L43.2815 53.591L41.146 54.2743L41.6585 52.0535L42.3419 51.8827L43.3669 51.541C43.8794 51.2848 44.2211 50.6869 44.0502 50.089C43.8794 49.4911 43.2815 49.1494 42.6836 49.2348L42.3419 49.3202L42.5127 48.5515C42.6835 47.8682 42.2564 47.2703 41.5731 47.0994C40.8897 46.9286 40.2918 47.3557 40.121 48.039L39.9501 48.8077L39.7793 48.7223C39.2668 48.2953 38.498 48.2952 38.0709 48.8077C37.6438 49.3202 37.6438 50.089 38.1563 50.516L38.8397 51.114L39.3522 51.541L38.8397 53.7618L37.2167 52.2243L37.3875 51.541L37.6438 50.516C37.7292 49.9181 37.3021 49.3202 36.7042 49.2348C36.1063 49.064 35.5083 49.4057 35.2521 50.0036L35.1666 50.3452L34.5687 49.8327C34.0562 49.4057 33.2874 49.4056 32.8603 49.9181C32.2624 50.2598 32.2624 51.0285 32.7749 51.541Z" fill="#B8D9FF"/>
</svg>
