<svg width="89" height="66" viewBox="0 0 89 66" fill="none" xmlns="http://www.w3.org/2000/svg">
<path d="M33.9914 1.43921C35.7852 5.36831 36.6394 9.98073 36.6394 14.5077C36.6394 31.3345 22.3743 45.1718 5.54672 45.1718C4.09459 45.1718 2.12994 43.976 0.763229 43.7197C0.592391 43.7197 0.421541 43.6343 0.165283 43.6343C5.03419 54.6529 16.3096 62.084 28.61 62.084C45.4376 62.084 58.9339 48.0759 58.9339 31.9324C58.9339 16.8139 48.5981 3.74542 33.9914 1.43921Z" fill="#D89F00"/>
<path d="M33.2226 0.841309C35.0164 4.77041 36.0414 9.04117 36.0414 13.6536C36.0414 30.4804 22.3743 44.1468 5.54668 44.1468C3.92371 44.1468 2.30073 43.976 0.763184 43.8051C5.63209 54.2258 16.1387 61.4861 28.4391 61.4861C45.2667 61.4861 58.9338 47.8197 58.9338 30.9929C58.9338 15.789 47.8293 3.14752 33.2226 0.841309Z" fill="#FFBB00"/>
<path opacity="0.2" d="M26.9871 35.349C29.208 35.0927 31.5143 34.9219 33.906 34.9219C43.0459 34.9219 51.3316 37.1427 57.311 40.8156C58.336 37.7406 58.9339 34.4948 58.9339 31.0782C58.9339 15.8743 47.8294 3.23288 33.2227 1.01208C35.0165 4.94118 36.0415 9.21194 36.0415 13.8244C36.0415 22.1096 32.6247 29.797 26.9871 35.349Z" fill="#FFBB00"/>
<path d="M77.5553 38.3386C76.7866 38.3386 76.1032 38.424 75.4198 38.5094C73.9677 35.349 70.7218 33.1282 66.9633 33.1282C66.5362 33.1282 66.1091 33.1282 65.682 33.2136C65.0841 28.9429 61.5819 25.6117 57.3963 25.6117C53.3816 25.6117 50.0503 28.6012 49.1961 32.5303C48.5127 32.3595 47.8294 32.1887 47.0606 32.1887C42.7042 32.1887 39.1166 35.7761 38.6895 40.3031C37.4936 39.5344 36.0415 39.1927 34.5894 39.1927C29.9767 39.1927 26.2183 43.2072 26.2183 48.1613C26.2183 53.1154 29.9767 57.1299 34.5894 57.1299C35.0165 57.1299 35.4436 57.0445 35.8707 57.0445C37.0665 60.4611 40.1416 62.8527 43.7292 62.8527C44.9251 62.8527 46.0356 62.5965 47.0606 62.084C49.2815 64.3902 52.8691 65.9277 57.0547 65.9277C62.6069 65.9277 67.2196 63.1944 68.7571 59.5215C70.1239 60.6319 71.9177 61.3152 73.7969 61.3152C77.2991 61.3152 80.2888 59.009 81.5701 55.7632C85.841 54.482 88.9161 51.2362 88.9161 47.3926C88.7453 42.3531 83.791 38.3386 77.5553 38.3386Z" fill="#A3BAD4"/>
<path d="M77.5553 37.7407C76.7866 37.7407 76.1032 37.8261 75.4198 37.9115C73.9677 34.7511 70.7218 32.5303 66.9633 32.5303C66.5362 32.5303 66.1091 32.5303 65.682 32.6157C65.0841 28.345 61.5819 25.0138 57.3963 25.0138C53.3816 25.0138 50.0503 28.0033 49.1961 31.9324C48.5127 31.7616 47.8294 31.6762 47.0606 31.6762C42.7042 31.6762 39.1166 35.2636 38.6895 39.7906C37.4936 39.0219 36.0415 38.6802 34.5894 38.6802C29.9767 38.6802 26.2183 42.6947 26.2183 47.6488C26.2183 52.6029 29.9767 56.6174 34.5894 56.6174C35.0165 56.6174 35.4436 56.532 35.8707 56.532C37.0665 59.9486 40.1416 62.3402 43.7292 62.3402C44.9251 62.3402 46.0356 62.084 47.0606 61.5715C49.2815 63.8777 52.8691 65.4152 57.0547 65.4152C62.6069 65.4152 67.2196 62.6819 68.7571 59.009C70.1239 60.1194 71.9177 60.8027 73.7969 60.8027C77.2991 60.8027 80.2888 58.4965 81.5701 55.2508C85.841 53.9695 88.9161 50.7238 88.9161 46.8801C88.7453 41.7552 83.791 37.7407 77.5553 37.7407Z" fill="#B8D9FF"/>
<path opacity="0.2" d="M57.4818 45.0864C69.0988 45.0864 79.8617 46.5384 88.4036 48.8446C88.6599 48.1613 88.7453 47.3926 88.7453 46.7092C88.7453 41.7552 83.7055 37.7407 77.5553 37.7407C76.7866 37.7407 76.1032 37.8261 75.4198 37.9115C73.9677 34.7511 70.7218 32.5303 66.9633 32.5303C66.5362 32.5303 66.1091 32.5303 65.682 32.6157C65.0841 28.345 61.5819 25.0138 57.3963 25.0138C53.3816 25.0138 50.0503 28.0033 49.1961 31.9324C48.5127 31.7616 47.8294 31.6762 47.0606 31.6762C42.7042 31.6762 39.1166 35.2636 38.6895 39.7906C37.4936 39.0219 36.0415 38.6802 34.5894 38.6802C29.9767 38.6802 26.2183 42.6947 26.2183 47.6488C26.2183 48.0759 26.3037 48.5884 26.3037 49.0155C34.931 46.5384 45.7793 45.0864 57.4818 45.0864Z" fill="#B8D9FF"/>
</svg>
