<svg width="77" height="61" viewBox="0 0 77 61" fill="none" xmlns="http://www.w3.org/2000/svg">
<path d="M47.403 33.3107L35.1026 45.525L40.484 49.9666L34.5901 60.2164L47.403 50.3083L47.2322 50.1374L42.0216 45.3542L47.403 33.3107Z" fill="#E69100"/>
<path d="M47.4031 33.3107L35.359 45.3542L40.4841 49.625L34.9319 59.6185L47.2323 50.1374L42.0217 45.0125L47.4031 33.3107Z" fill="#FFBB00"/>
<path d="M29.465 29.8087L17.1646 42.0231L22.546 46.4647L16.6521 56.7145L29.465 46.8063L29.2942 46.6355L24.0836 41.8523L29.465 29.8087Z" fill="#E69100"/>
<path d="M29.4651 29.8087L17.421 41.8523L22.5462 46.123L16.9939 56.1166L29.2943 46.6355L24.0837 41.5106L29.4651 29.8087Z" fill="#FFBB00"/>
<path d="M65.3412 29.8087L53.0408 42.0231L58.4223 46.4647L52.5283 56.7145L65.3412 46.8063L65.1704 46.6355L59.9598 41.8523L65.3412 29.8087Z" fill="#E69100"/>
<path d="M65.3414 29.8087L53.2972 41.8523L58.4224 46.123L52.8701 56.1166L65.1705 46.6355L59.9599 41.5106L65.3414 29.8087Z" fill="#FFBB00"/>
<path d="M17.5918 14.861C18.3606 14.861 19.2148 14.861 19.8982 14.9464C21.2649 11.7007 24.6816 9.30904 28.7818 9.13821C29.2089 9.13821 29.7214 9.13821 30.1485 9.13821C30.5756 4.78203 34.2486 1.28 38.6904 1.10917C42.9614 0.938342 46.7198 3.75705 47.8303 7.68615C48.5137 7.42991 49.2824 7.34449 50.1366 7.25908C54.8347 7.08824 58.8494 10.4194 59.4473 15.0318C60.7286 14.2631 62.1808 13.7506 63.8037 13.6652C68.7581 13.409 73.029 17.3381 73.1999 22.2921C73.4561 27.2462 69.5268 31.517 64.5725 31.6878C64.1454 31.6878 63.6329 31.6878 63.2058 31.6024C62.0953 35.1044 58.8494 37.6669 55.0055 37.8377C53.7242 37.9231 52.5284 37.6669 51.4179 37.2398C49.1116 39.6314 45.2677 41.3397 40.8259 41.596C34.932 41.8522 29.7214 39.3752 28.013 35.7023C26.5609 36.8981 24.6816 37.6669 22.717 37.7523C18.9585 37.9231 15.6272 35.7023 14.0896 32.542C9.47699 31.4316 5.80396 29.8087 5.80396 24.4275C5.88937 19.4734 10.9291 15.1173 17.5918 14.861Z" fill="#1A485E"/>
<path d="M17.5918 14.1778C18.3606 14.1778 19.2148 14.1778 19.8982 14.2632C21.2649 11.0174 24.6816 8.6258 28.7818 8.45496C29.2089 8.45496 29.7214 8.45496 30.1485 8.45496C30.5756 4.09879 34.2486 0.596775 38.6904 0.425945C42.9614 0.255114 46.7198 3.07381 47.8303 7.00291C48.5137 6.74666 49.2824 6.66125 50.1366 6.57583C54.8347 6.405 58.8494 9.73619 59.4473 14.3486C60.7286 13.5799 62.1808 13.0674 63.8037 12.982C68.7581 12.7257 73.029 16.6548 73.1999 21.6089C73.4561 26.563 69.5268 30.8337 64.5725 31.0046C64.1454 31.0046 63.6329 31.0046 63.2058 30.9192C62.0953 34.4212 58.8494 36.9836 55.0055 37.1545C53.7242 37.2399 52.5284 36.9836 51.4179 36.5566C49.1116 38.9482 45.2677 40.6565 40.8259 40.9127C34.932 41.169 29.7214 38.6919 28.013 35.0191C26.5609 36.2149 24.6816 36.9836 22.717 37.069C18.9585 37.2399 15.6272 35.0191 14.0896 31.8587C9.47699 30.7483 5.80396 29.1254 5.80396 23.7443C5.88937 18.7048 10.9291 14.434 17.5918 14.1778Z" fill="#276C8D"/>
<path opacity="0.15" d="M39.6301 21.3526C52.1867 21.3526 63.7184 22.463 72.9437 24.4275C73.1999 23.5734 73.2853 22.5484 73.2853 21.6088C73.0291 16.6548 68.8435 12.7257 63.8892 12.9819C62.2662 13.0673 60.8141 13.5798 59.5328 14.3485C58.8495 9.82154 54.8348 6.40494 50.2221 6.57577C49.4533 6.57577 48.6846 6.7466 47.9158 7.00285C46.8053 3.07375 43.1323 0.169639 38.7759 0.425884C34.2487 0.596714 30.6611 4.09873 30.234 8.4549C29.8069 8.4549 29.3798 8.36949 28.8673 8.4549C24.7671 8.62574 21.3503 11.0174 19.9836 14.2631C19.2149 14.1777 18.4461 14.1777 17.6773 14.1777C11.0146 14.434 5.97485 18.7901 5.97485 23.7442C5.97485 24.0005 5.97485 24.2567 5.97485 24.513C15.2856 22.5484 26.988 21.3526 39.6301 21.3526Z" fill="#7F8C8D"/>
<path d="M60.5578 26.5629C63.1203 27.8442 66.2809 26.7338 67.4767 24.1713C67.6476 23.8296 67.8184 23.4026 67.9038 23.0609C68.3309 23.5734 68.8435 23.9151 69.4414 24.2567C72.004 25.538 75.1645 24.4276 76.3604 21.8651C77.6416 19.3026 76.5312 16.1423 73.9686 14.9465C73.7124 14.8611 73.5415 14.7756 73.2853 14.6902C73.7978 14.1777 74.2249 13.5798 74.5666 12.8965C76.0187 9.90697 74.7374 6.31954 71.7477 4.86748C69.6976 3.92792 67.4767 4.18416 65.7684 5.29456C65.3413 4.9529 64.9142 4.61123 64.4016 4.35499C61.8391 3.07376 58.6785 4.18416 57.4827 6.74662C56.5431 8.71116 56.8847 10.932 58.2514 12.4694C56.7139 12.8111 55.3472 13.7507 54.5784 15.2881C53.2971 17.8506 54.4076 21.011 56.9701 22.2068C57.141 22.2922 57.3118 22.3776 57.5681 22.463C57.8243 24.0859 58.9348 25.7088 60.5578 26.5629Z" fill="#1E546E"/>
<path d="M60.5578 25.7943C63.1203 27.0755 66.2809 25.9651 67.4767 23.4026C67.6476 23.061 67.8184 22.6339 67.9038 22.2922C68.3309 22.8047 68.8435 23.1464 69.4414 23.488C72.004 24.7693 75.1645 23.6589 76.3604 21.0964C77.6416 18.534 76.5312 15.3736 73.9686 14.1778C73.7124 14.0924 73.5415 14.007 73.2853 13.9215C73.7978 13.409 74.2249 12.8111 74.5666 12.1278C76.0187 9.1383 74.7374 5.55085 71.7477 4.09879C69.6976 3.15923 67.4767 3.41547 65.7684 4.52587C65.3413 4.18421 64.9142 3.84256 64.4016 3.58631C61.8391 2.30508 58.6785 3.41548 57.4827 5.97794C56.5431 7.94249 56.8847 10.1633 58.2514 11.7008C56.7139 12.0424 55.3472 12.982 54.5784 14.5195C53.2971 17.0819 54.4076 20.2423 56.9701 21.4381C57.141 21.5235 57.3118 21.6089 57.5681 21.6943C57.8243 23.4026 58.9348 25.0255 60.5578 25.7943Z" fill="#0A8BC9"/>
<path opacity="0.1" d="M65.5976 14.6903C69.1852 14.6903 72.5166 14.8611 75.5917 15.2027C75.1646 14.7757 74.6521 14.3486 74.0541 14.0924C73.7979 14.0069 73.627 13.9215 73.3708 13.8361C73.8833 13.3236 74.3104 12.7257 74.6521 12.0424C76.1042 9.05285 74.8229 5.46542 71.8332 4.01336C69.7832 3.07379 67.5623 3.33004 65.8539 4.44043C65.4268 4.09877 64.9997 3.75711 64.4872 3.50086C61.9246 2.21963 58.7641 3.33003 57.5682 5.89249C56.6286 7.85704 56.9703 10.0778 58.337 11.6153C56.7994 11.957 55.4327 12.8965 54.6639 14.434C54.4931 14.6903 54.4077 15.0319 54.3223 15.2882C57.739 14.9465 61.5829 14.6903 65.5976 14.6903Z" fill="#9AAAAB"/>
<path d="M36.7257 29.2109C36.2986 24.6839 30.7463 22.036 26.9025 24.2568C26.3045 20.1569 22.8023 17.0819 18.5314 17.0819C14.5166 17.0819 11.1853 19.9006 10.3311 23.6589C9.64774 23.488 8.96438 23.4026 8.19561 23.4026C3.83922 23.4026 0.2516 27.0755 1.02037 31.2608C3.07044 42.621 38.007 42.3648 36.7257 29.2109Z" fill="#205A75"/>
<path d="M36.7257 28.4421C36.2986 23.9151 30.7463 21.2672 26.9025 23.488C26.3045 19.3881 22.8023 16.3131 18.5314 16.3131C14.5166 16.3131 11.1853 19.1318 10.3311 22.8901C9.64774 22.7192 8.96438 22.6338 8.19561 22.6338C3.83922 22.6338 0.2516 26.3067 1.02037 30.492C3.07044 41.8523 38.007 41.5106 36.7257 28.4421Z" fill="#1981B3"/>
<path opacity="0.1" d="M18.7876 28.2712C25.3649 28.2712 31.6006 28.6983 36.8111 29.4671C36.8111 29.1254 36.8111 28.7837 36.8111 28.4421C36.384 23.9151 30.8318 21.2672 26.9879 23.488C26.39 19.3881 22.8878 16.3131 18.6168 16.3131C14.6021 16.3131 11.2707 19.1318 10.4165 22.8901C9.73319 22.7192 9.04983 22.6338 8.28106 22.6338C4.26634 22.6338 0.934986 25.7088 1.02041 29.5525C6.14557 28.6983 12.2104 28.2712 18.7876 28.2712Z" fill="#8A9899"/>
</svg>
