<svg width="73" height="73" viewBox="0 0 73 73" fill="none" xmlns="http://www.w3.org/2000/svg">
<path d="M36.6433 14.8597C24.6846 14.8597 14.9468 24.5971 14.9468 36.5552C14.9468 48.5133 24.6846 58.2506 36.6433 58.2506C48.602 58.2506 58.3398 48.5133 58.3398 36.5552C58.3398 24.5971 48.602 14.8597 36.6433 14.8597Z" fill="#E69100"/>
<path d="M60.3899 46.378L72.9466 36.299L72.6049 36.0428L60.2191 26.3054L61.7566 10.8453L46.3811 12.4682L36.6433 0.595459L26.9055 12.4682L11.3592 10.7599L12.9822 26.3054L0.681766 36.0428L0.340088 36.299L12.8967 46.4634L11.1884 61.4965L11.1029 62.009L26.4784 60.3861L36.6433 72.6859L46.7228 60.3007L62.0983 62.009L60.3899 46.378ZM46.4666 59.7028C43.3915 60.7277 40.0601 61.5819 36.6433 61.5819C33.2266 61.5819 29.9806 60.6423 26.9055 59.6173C24.0013 58.1653 21.3533 56.6278 18.9615 54.2362C16.5698 51.8446 14.6051 49.1113 13.153 46.2926C12.2134 43.2176 11.6154 39.9719 11.6154 36.5552C11.6154 33.1386 12.128 29.8929 13.153 26.8179C14.6051 23.9138 16.5698 21.2659 18.9615 18.8743C21.3533 16.4827 24.0867 14.5181 26.9055 13.0661C29.9806 12.1265 33.2266 11.5286 36.6433 11.5286C40.0601 11.5286 43.306 12.0411 46.3811 13.0661C49.2854 14.5181 51.9334 16.4827 54.3252 18.8743C56.7169 21.2659 58.6815 23.9992 60.1337 26.8179C61.1587 29.8929 61.6712 33.1386 61.6712 36.5552C61.6712 39.9719 61.1587 43.2176 60.1337 46.2926C58.6815 49.1967 56.7169 51.8446 54.3252 54.2362C51.9334 56.6278 49.3708 58.2507 46.4666 59.7028Z" fill="#E69100"/>
<path d="M58.3401 36.0427C58.3401 48.0009 48.6023 57.7382 36.6436 57.7382C24.6848 57.7382 14.947 48.0009 14.947 36.0427C14.947 24.0846 24.6848 14.3473 36.6436 14.3473C48.6023 14.3473 58.3401 24.0846 58.3401 36.0427Z" fill="#FFBB00"/>
<path d="M60.3901 45.8655L72.605 36.0428L60.3901 26.2201L62.0984 10.5891L46.4667 12.2974L36.6435 0.0830078L26.8202 12.2974L11.1885 10.5891L12.8969 26.2201L0.681885 36.0428L12.8969 45.8655L11.1885 61.4965L26.8202 59.7882L36.6435 72.0026L46.4667 59.7882L62.0984 61.4965L60.3901 45.8655ZM46.3813 59.532C43.3062 60.4715 40.0602 61.0694 36.6435 61.0694C33.2267 61.0694 29.9807 60.5569 26.9056 59.532C24.0014 58.0799 21.3534 56.1154 18.9616 53.7237C16.5699 51.3321 14.6052 48.5988 13.1531 45.7801C12.2135 42.7052 11.6156 39.4594 11.6156 36.0428C11.6156 32.6262 12.1281 29.3804 13.1531 26.3055C14.6052 23.4014 16.5699 20.7535 18.9616 18.3619C21.3534 15.9702 24.0868 14.0057 26.9056 12.5536C29.9807 11.5286 33.2267 11.0162 36.6435 11.0162C40.0602 11.0162 43.3062 11.5286 46.3813 12.5536C49.2855 14.0057 51.9335 15.9702 54.3253 18.3619C56.717 20.7535 58.6817 23.4868 60.1338 26.3055C61.1588 29.3804 61.6713 32.6262 61.6713 36.0428C61.6713 39.4594 61.1588 42.7052 60.1338 45.7801C58.6817 48.6842 56.717 51.3321 54.3253 53.7237C51.9335 56.1154 49.2855 58.0799 46.3813 59.532Z" fill="#FFBB00"/>
<path opacity="0.2" d="M36.6433 36.0427C44.2456 36.0427 51.5063 36.4698 58.2544 37.2386C58.2544 36.8115 58.2544 36.4698 58.2544 36.0427C58.2544 24.0846 48.5166 14.3473 36.5579 14.3473C24.5991 14.3473 14.8613 24.0846 14.8613 36.0427C14.8613 36.4698 14.8613 36.8115 14.8613 37.2386C21.7803 36.4698 29.041 36.0427 36.6433 36.0427Z" fill="#FFBB00"/>
<path opacity="0.2" d="M4.09866 38.7761C6.4904 38.349 9.05299 37.9219 11.6156 37.5803C11.6156 37.0678 11.5301 36.5553 11.5301 35.9574C11.5301 32.5408 12.0427 29.295 13.0677 26.2201C14.5198 23.3159 16.4845 20.6681 18.8762 18.2764C21.268 15.8848 24.0014 13.9203 26.8202 12.4682C29.8953 11.4432 33.1413 10.9307 36.558 10.9307C39.9748 10.9307 43.2208 11.4432 46.2959 12.4682C49.2001 13.9203 51.8481 15.8848 54.2399 18.2764C56.6316 20.6681 58.5962 23.4014 60.0484 26.2201C61.0734 29.295 61.5859 32.5408 61.5859 35.9574C61.5859 36.4699 61.5859 36.9824 61.5005 37.5803C64.0631 37.9219 66.6257 38.349 69.0174 38.7761L72.4342 36.0428L60.3901 26.2201L62.0984 10.5891L46.4667 12.2974L36.6435 0.0830078L26.8202 12.2974L11.1885 10.5891L12.8969 26.2201L0.681885 36.0428L4.09866 38.7761Z" fill="#FFBB00"/>
</svg>
