<svg width="70" height="74" viewBox="0 0 70 74" fill="none" xmlns="http://www.w3.org/2000/svg">
<path d="M38.1892 71.4622C38.1892 72.5726 36.1391 73.5121 33.5765 73.5121C31.0139 73.5121 28.9639 72.5726 28.9639 71.4622C28.9639 70.3518 31.0139 69.4122 33.5765 69.4122C36.1391 69.4122 38.1892 70.3518 38.1892 71.4622Z" fill="#1A485E"/>
<path d="M38.1892 71.0351C38.1892 72.1455 36.1391 73.085 33.5765 73.085C31.0139 73.085 28.9639 72.1455 28.9639 71.0351C28.9639 69.9247 31.0139 68.9851 33.5765 68.9851C36.1391 68.9851 38.1892 69.8393 38.1892 71.0351Z" fill="#276C8D"/>
<path d="M41.5205 68.3872C41.5205 70.181 38.2746 71.633 34.1744 71.633C30.1597 71.633 26.8284 70.181 26.8284 68.3872C26.8284 66.5935 30.0743 65.1415 34.1744 65.1415C38.2746 65.1415 41.5205 66.5935 41.5205 68.3872Z" fill="#1A485E"/>
<path d="M41.5205 67.7039C41.5205 69.4976 38.2746 70.9497 34.1744 70.9497C30.1597 70.9497 26.8284 69.4976 26.8284 67.7039C26.8284 65.9102 30.0743 64.4581 34.1744 64.4581C38.2746 64.4581 41.5205 65.9102 41.5205 67.7039Z" fill="#276C8D"/>
<path d="M43.3998 63.9456C43.3998 66.1663 39.2997 67.9601 34.1745 67.9601C29.1348 67.9601 24.9492 66.1663 24.9492 63.9456C24.9492 61.7248 29.0493 59.931 34.1745 59.931C39.2997 59.931 43.3998 61.7248 43.3998 63.9456Z" fill="#1A485E"/>
<path d="M43.3998 63.0914C43.3998 65.3122 39.2997 67.1059 34.1745 67.1059C29.1348 67.1059 24.9492 65.3122 24.9492 63.0914C24.9492 60.8706 29.0493 59.0769 34.1745 59.0769C39.2997 59.0769 43.3998 60.8706 43.3998 63.0914Z" fill="#276C8D"/>
<path d="M41.7769 60.3582C41.7769 62.3227 36.5663 63.9456 30.2452 63.9456C23.8388 63.9456 18.7136 62.3227 18.7136 60.3582C18.7136 58.3936 23.9242 56.7708 30.2452 56.7708C36.5663 56.7708 41.7769 58.3936 41.7769 60.3582Z" fill="#1A485E"/>
<path d="M41.7769 59.504C41.7769 61.4685 36.5663 63.0914 30.2452 63.0914C23.8388 63.0914 18.7136 61.4685 18.7136 59.504C18.7136 57.5394 23.9242 55.9166 30.2452 55.9166C36.5663 55.8311 41.7769 57.454 41.7769 59.504Z" fill="#276C8D"/>
<path d="M48.6957 55.1479C48.6957 57.6249 42.2038 59.6749 34.1744 59.6749C26.145 59.6749 19.6531 57.6249 19.6531 55.1479C19.6531 52.6708 26.145 50.6208 34.1744 50.6208C42.2038 50.6208 48.6957 52.5854 48.6957 55.1479Z" fill="#1A485E"/>
<path d="M48.6957 54.2083C48.6957 56.6853 42.2038 58.7353 34.1744 58.7353C26.145 58.7353 19.6531 56.6853 19.6531 54.2083C19.6531 51.7312 26.145 49.6813 34.1744 49.6813C42.2038 49.6813 48.6957 51.7312 48.6957 54.2083Z" fill="#276C8D"/>
<path d="M57.494 47.5459C57.494 51.048 48.4395 53.8667 37.335 53.8667C26.2305 53.8667 17.176 51.048 17.176 47.5459C17.176 44.0439 26.2305 41.2252 37.335 41.2252C48.4395 41.2252 57.494 44.0439 57.494 47.5459Z" fill="#1A485E"/>
<path d="M57.494 46.6918C57.494 50.1938 48.4395 53.0125 37.335 53.0125C26.2305 53.0125 17.176 50.1938 17.176 46.6918C17.176 43.1898 26.2305 40.3711 37.335 40.3711C48.4395 40.3711 57.494 43.1898 57.494 46.6918Z" fill="#276C8D"/>
<path d="M54.7605 39.5169C54.7605 43.5314 44.2539 46.8626 31.3556 46.8626C18.3719 46.8626 7.95068 43.6168 7.95068 39.5169C7.95068 35.5023 18.4573 32.1711 31.3556 32.1711C44.2539 32.1711 54.7605 35.4169 54.7605 39.5169Z" fill="#1A485E"/>
<path d="M54.7605 38.6627C54.7605 42.6772 44.2539 46.0084 31.3556 46.0084C18.3719 46.0084 7.95068 42.7627 7.95068 38.6627C7.95068 34.6482 18.4573 31.317 31.3556 31.317C44.2539 31.317 54.7605 34.5628 54.7605 38.6627Z" fill="#276C8D"/>
<path d="M62.3629 30.7192C62.3629 35.5878 49.7208 39.5169 34.1745 39.5169C18.6282 39.5169 5.98608 35.5878 5.98608 30.7192C5.98608 25.8505 18.6282 21.9214 34.1745 21.9214C49.7208 21.9214 62.3629 25.8505 62.3629 30.7192Z" fill="#1A485E"/>
<path d="M62.3629 29.7796C62.3629 34.6482 49.7208 38.5773 34.1745 38.5773C18.6282 38.5773 5.98608 34.6482 5.98608 29.7796C5.98608 24.9109 18.6282 20.9818 34.1745 20.9818C49.7208 20.9818 62.3629 24.9963 62.3629 29.7796Z" fill="#276C8D"/>
<path d="M51.8563 23.7151C51.8563 28.1566 40.3246 31.7441 26.0596 31.7441C11.7946 31.7441 0.262939 28.1566 0.262939 23.7151C0.262939 19.2735 11.7946 15.686 26.0596 15.686C40.3246 15.6006 51.8563 19.2735 51.8563 23.7151Z" fill="#1A485E"/>
<path d="M51.8563 22.7755C51.8563 27.2171 40.3246 30.8045 26.0596 30.8045C11.7946 30.8045 0.262939 27.2171 0.262939 22.7755C0.262939 18.3339 11.7946 14.7465 26.0596 14.7465C40.3246 14.7465 51.8563 18.3339 51.8563 22.7755Z" fill="#276C8D"/>
<path d="M61.1669 15.259C61.1669 20.213 48.2685 24.313 32.2951 24.313C16.3217 24.313 3.42334 20.2985 3.42334 15.259C3.42334 10.3049 16.3217 6.20496 32.2951 6.20496C48.2685 6.20496 61.1669 10.3049 61.1669 15.259Z" fill="#1A485E"/>
<path d="M61.1669 14.4048C61.1669 19.3589 48.2685 23.4588 32.2951 23.4588C16.3217 23.4588 3.42334 19.4443 3.42334 14.4048C3.42334 9.45076 16.3217 5.35083 32.2951 5.35083C48.2685 5.35083 61.1669 9.36535 61.1669 14.4048Z" fill="#276C8D"/>
<path opacity="0.1" d="M6.1568 28.84C6.07138 29.1817 5.98595 29.5233 5.98595 29.7796C5.98595 29.9504 5.98595 30.0358 5.98595 30.2066C5.98595 30.3775 5.98595 30.4629 5.98595 30.6337C5.98595 32.342 7.60892 33.9649 10.2569 35.3316C8.71937 36.2711 7.77976 37.3815 7.77976 38.5773C7.77976 38.7482 7.77977 38.8336 7.86519 39.0044C7.86519 39.1752 7.77976 39.2606 7.77976 39.4315C7.77976 40.6273 8.63395 41.7377 10.2569 42.6773C17.5176 41.4814 25.547 40.7981 34.0889 40.7981C40.8371 40.7981 47.2435 41.2252 53.1375 41.9939C54.0771 41.2252 54.5896 40.371 54.5896 39.4315C54.5896 39.2606 54.5896 39.1752 54.5042 39.0044C54.5042 38.8336 54.5896 38.7482 54.5896 38.5773C54.5896 37.9794 54.3333 37.3815 53.9062 36.869C59.0314 35.2461 62.1919 33.1108 62.1919 30.6337C62.1919 30.4629 62.1919 30.3775 62.1919 30.2066C62.1919 30.0358 62.1919 29.9504 62.1919 29.7796C62.1919 26.9609 58.0918 24.5692 51.6853 22.9464C51.6853 22.8609 51.6853 22.8609 51.6853 22.7755C51.6853 22.5193 51.5999 22.1776 51.5145 21.9214C57.323 20.2985 60.996 17.9069 60.996 15.259C60.996 15.0882 60.996 15.0027 60.996 14.8319C60.996 14.6611 60.996 14.5757 60.996 14.4048C60.996 9.45076 48.0977 5.35083 32.1243 5.35083C16.1509 5.35083 3.25253 9.36535 3.25253 14.4048C3.25253 14.5757 3.25253 14.6611 3.25253 14.8319C3.25253 15.0027 3.25253 15.0882 3.25253 15.259C3.25253 16.284 3.76505 17.2235 4.79008 18.1631C1.8004 19.4443 0.0065918 21.0672 0.0065918 22.8609C0.0065918 23.0318 0.0065918 23.1172 0.0065918 23.288C0.0065918 23.4588 0.0065918 23.5443 0.0065918 23.7151C0.26285 25.6796 2.48376 27.4734 6.1568 28.84Z" fill="#9AAAAB"/>
<path d="M62.4481 22.5194C62.7043 22.434 63.4731 22.3485 65.5232 22.4339C67.9149 22.4339 68.9399 20.0423 68.342 18.5048C68.6837 18.2486 69.1962 18.0778 69.4525 17.9924C69.4525 17.9924 69.367 17.5653 69.1962 17.4799C69.1962 17.4799 68.6837 17.907 68.2566 18.2486C67.8295 17.4799 66.8899 16.9674 65.3523 17.309C62.9606 17.8215 62.1918 22.6048 62.4481 22.5194Z" fill="#39AB74"/>
<path d="M16.7488 51.6459C16.3217 51.7313 15.2967 51.6459 12.307 51.1334C8.89025 50.6209 6.92561 53.7812 7.43812 56.1729C6.84019 56.4291 6.15683 56.6854 5.72974 56.5999C5.72974 56.5999 5.81515 57.2833 6.07141 57.3687C6.07141 57.3687 6.92561 56.8562 7.60896 56.5145C8.03606 57.7957 9.31734 58.6499 11.5382 58.4791C14.955 58.3083 17.0905 51.6459 16.7488 51.6459Z" fill="#39AB74"/>
<path d="M5.55898 7.65707C5.47356 7.40082 5.38815 6.63209 5.30273 4.58213C5.21731 2.1905 2.74014 1.25093 1.28801 1.93425C1.03175 1.59259 0.775499 1.0801 0.775499 0.823853C0.775499 0.823853 0.348402 0.994691 0.348402 1.16552C0.348402 1.16552 0.775493 1.678 1.11717 2.10508C0.348396 2.61757 -0.16412 3.55715 0.262977 5.0092C0.860913 7.31541 5.6444 7.91331 5.55898 7.65707Z" fill="#39AB74"/>
</svg>
