<svg width="74" height="67" viewBox="0 0 74 67" fill="none" xmlns="http://www.w3.org/2000/svg">
<path d="M60.1773 15.1541C59.3231 15.1541 58.4689 15.2395 57.6147 15.3249C55.9063 11.9083 52.1479 9.43131 47.7061 9.43131C47.1936 9.43131 46.7665 9.43131 46.254 9.51672C45.5706 4.81889 41.4705 1.23145 36.6016 1.23145C31.9889 1.23145 28.0596 4.47722 27.0346 8.8334C26.2658 8.66257 25.4116 8.49173 24.5574 8.49173C19.4323 8.49173 15.3321 12.3354 14.8196 17.2895C13.3675 16.5208 11.7445 16.0083 10.0361 16.0083C4.6547 16.0083 0.212891 20.3644 0.212891 25.831C0.212891 31.2122 4.56928 35.6538 10.0361 35.6538C10.5486 35.6538 10.9757 35.5683 11.4882 35.5683C12.855 39.2412 16.4426 41.8891 20.6281 41.8891C21.9948 41.8891 23.3615 41.6328 24.472 41.1203C27.0346 43.5974 31.3055 45.3057 36.089 45.3057C42.4955 45.3057 47.9623 42.4016 49.6707 38.3016C51.2937 39.4975 53.3438 40.2662 55.5647 40.2662C59.6648 40.2662 63.167 37.7891 64.6191 34.2017C69.5735 32.8351 73.1611 29.2476 73.1611 24.9769C73.2465 19.5957 67.3525 15.1541 60.1773 15.1541Z" fill="#1A485E"/>
<path d="M60.1773 14.4709C59.3231 14.4709 58.4689 14.5563 57.6147 14.6417C55.9063 11.2251 52.1479 8.74807 47.7061 8.74807C47.1936 8.74807 46.7665 8.74807 46.254 8.83349C45.5706 4.13565 41.4705 0.548218 36.6016 0.548218C31.9889 0.548218 28.0596 3.794 27.0346 8.15017C26.2658 7.97934 25.4116 7.80851 24.5574 7.80851C19.4323 7.80851 15.3321 11.6522 14.8196 16.6063C13.3675 15.8375 11.7445 15.325 10.0361 15.325C4.6547 15.325 0.212891 19.6812 0.212891 25.1478C0.212891 30.5289 4.56928 34.9705 10.0361 34.9705C10.5486 34.9705 10.9757 34.8851 11.4882 34.8851C12.855 38.558 16.4426 41.2058 20.6281 41.2058C21.9948 41.2058 23.3615 40.9496 24.472 40.4371C27.0346 42.9141 31.3055 44.6224 36.089 44.6224C42.4955 44.6224 47.9623 41.7183 49.6707 37.6184C51.2937 38.8142 53.3438 39.583 55.5647 39.583C59.6648 39.583 63.167 37.0205 64.6191 33.5185C69.5735 32.1518 73.1611 28.5644 73.1611 24.2936C73.2465 18.9125 67.3525 14.4709 60.1773 14.4709Z" fill="#276C8D"/>
<path opacity="0.15" d="M36.7724 22.4999C50.3541 22.4999 62.8254 24.0373 72.9048 26.5998C73.1611 25.8311 73.3319 25.0623 73.3319 24.2082C73.3319 18.827 67.438 14.3854 60.2628 14.3854C59.4086 14.3854 58.5544 14.4709 57.7002 14.5563C55.9918 11.1397 52.2333 8.66262 47.7915 8.66262C47.279 8.66262 46.8519 8.66262 46.3394 8.74804C45.656 4.0502 41.5559 0.462769 36.687 0.462769C32.0744 0.462769 28.1451 3.70854 27.12 8.06471C26.3513 7.89388 25.4971 7.72306 24.6429 7.72306C19.5177 7.72306 15.4176 11.5667 14.9051 16.5208C13.4529 15.7521 11.83 15.2396 10.1216 15.2396C4.74015 15.2396 0.29834 19.5958 0.29834 25.0623C0.29834 25.5748 0.383764 26.0873 0.383764 26.5998C10.4633 24.1228 23.0199 22.4999 36.7724 22.4999Z" fill="#7F8C8D"/>
<path d="M18.4927 53.9327L18.0656 53.5056H18.151C18.5781 53.3348 18.8344 52.9077 18.749 52.3952C18.5781 51.9682 18.151 51.7119 17.6385 51.7973L17.0406 51.9682L16.5281 52.139L15.3322 51.0286L16.8697 50.5161L17.2114 50.8578L17.8094 51.3703C18.151 51.6265 18.6636 51.5411 19.0052 51.2848C19.3469 50.9432 19.3469 50.4307 19.0052 50.089L18.8344 49.9182L19.3469 49.7474C19.774 49.5765 20.0303 49.1495 19.9448 48.637C19.774 48.2099 19.3469 47.8682 18.8344 48.0391L18.3219 48.2099V48.1245C18.4073 47.612 18.151 47.1849 17.6385 47.0995C17.126 47.0141 16.6989 47.2703 16.6135 47.7828L16.4427 48.3807L16.3572 48.8932L14.8197 49.4057L15.1614 47.7828L15.6739 47.612L16.4427 47.3557C16.8697 47.1849 17.0406 46.7578 16.9552 46.3308C16.7843 45.9037 16.3572 45.6474 15.9301 45.7329L15.6739 45.8183L15.7593 45.2204C15.8447 44.7079 15.5885 44.2808 15.0759 44.1954C14.5634 44.11 14.1363 44.3662 14.0509 44.8787L13.9655 45.4766L13.8801 45.3912C13.5384 45.0495 12.9405 45.0495 12.5988 45.4766C12.2571 45.8183 12.2571 46.4162 12.6842 46.7578L13.1967 47.1849L13.5384 47.5266L13.1967 48.8932L12.0008 47.7828L12.0863 47.2703L12.2571 46.5016C12.2571 46.0745 12.0008 45.6474 11.5737 45.562C11.1467 45.4766 10.7195 45.7329 10.5487 46.0745L10.4633 46.3308L10.0362 45.9037C9.69452 45.562 9.09658 45.562 8.7549 45.9891C8.41323 46.3308 8.41322 46.9287 8.84032 47.2703L9.26741 47.6974H9.182C8.7549 47.8682 8.49865 48.2953 8.58407 48.8078C8.75491 49.2349 9.18199 49.4911 9.69451 49.4057L10.2925 49.2349L10.805 49.064L12.0008 50.1744L10.4633 50.6869L10.1216 50.3453L9.52367 49.8328C9.182 49.5765 8.66949 49.662 8.32781 49.9182C7.98613 50.2599 7.98613 50.7724 8.32781 51.114L8.49864 51.2848L7.98612 51.4557C7.55903 51.6265 7.21735 52.0536 7.38819 52.5661C7.55903 52.9932 7.98613 53.2494 8.49864 53.164L9.01117 52.9932V53.0786C8.92575 53.591 9.18199 54.0181 9.69451 54.1035C10.207 54.189 10.6341 53.9327 10.7196 53.4202L10.8904 52.8223L10.9758 52.3098L12.5134 51.7973L12.1717 53.4202L11.6592 53.5911L10.8904 53.8473C10.4633 54.0181 10.2924 54.4452 10.3779 54.8723C10.5487 55.2994 10.9758 55.5556 11.4029 55.4702L11.6592 55.3848L11.5737 55.9827C11.4883 56.4952 11.7446 56.9222 12.2571 57.0077C12.7696 57.0931 13.1967 56.8368 13.2821 56.3243L13.3675 55.7264L13.453 55.8119C13.7947 56.1535 14.3926 56.1535 14.7343 55.7264C15.0759 55.3848 15.0759 54.7869 14.6488 54.4452L14.1363 54.0181L13.7946 53.6765L14.1363 52.0536L15.3322 53.164L15.2468 53.6765L15.0759 54.4452C15.0759 54.8723 15.3322 55.2994 15.7593 55.3848C16.1864 55.4702 16.6135 55.2139 16.7843 54.8723L16.8697 54.616L17.2968 55.0431C17.6385 55.3848 18.2365 55.3848 18.5781 54.9577C18.9198 54.7869 18.9198 54.189 18.4927 53.9327Z" fill="#007DC4"/>
<path d="M18.5782 53.591L18.1511 53.164H18.2365C18.6636 52.9931 19.0053 52.5661 18.8345 52.0536C18.6636 51.6265 18.2365 51.3702 17.724 51.4557L17.1261 51.6265L16.6136 51.7973L15.4177 50.6869L16.9552 50.1744L17.2969 50.5161L17.8949 51.0286C18.2365 51.2848 18.7491 51.1994 19.0907 50.9432C19.4324 50.6015 19.4324 50.089 19.0907 49.7474L18.9199 49.5765L19.4324 49.4057C19.8595 49.2349 20.1158 48.8078 20.0304 48.2953C19.8595 47.8682 19.4324 47.5266 18.9199 47.6974L18.4074 47.8682V47.7828C18.4928 47.2703 18.2365 46.8432 17.724 46.7578C17.2115 46.6724 16.7844 46.9287 16.699 47.4411L16.6136 48.039L16.5282 48.5515L14.9906 49.064L15.3323 47.4411L15.8448 47.2703L16.6136 47.0141C17.0407 46.8432 17.2115 46.4162 17.1261 45.9891C16.9553 45.562 16.5282 45.3058 16.1011 45.3912L15.8448 45.4766L16.0156 44.8787C16.1011 44.3662 15.8448 43.9391 15.3323 43.8537C14.8198 43.7683 14.3927 44.0245 14.3073 44.537L14.2218 45.1349L14.1364 45.0495C13.7947 44.7079 13.1968 44.7079 12.8551 45.1349C12.5134 45.4766 12.5134 46.0745 12.9405 46.4162L13.4531 46.8432L13.7947 47.1849L13.4531 48.8078L12.2572 47.6974L12.3426 47.1849L12.5134 46.4162C12.5134 45.9891 12.2572 45.562 11.8301 45.4766C11.403 45.3912 10.9759 45.6474 10.8051 45.9891L10.7196 46.2453L10.2925 45.8182C9.95087 45.4766 9.35293 45.4766 9.01125 45.9037C8.66958 46.2453 8.66957 46.8432 9.09666 47.1849L9.52376 47.612H9.43835C9.01125 47.7828 8.75498 48.2099 8.8404 48.7224C9.01124 49.1494 9.43834 49.4057 9.95086 49.3203L10.5488 49.1494L11.0613 48.9786L12.2572 50.089L10.7196 50.6015L10.378 50.2598L9.78002 49.7474C9.43834 49.4911 8.92583 49.5765 8.58416 49.8328C8.24248 50.1744 8.24248 50.6869 8.58416 51.0286L8.75499 51.1994L8.24247 51.3702C7.81537 51.5411 7.4737 51.9681 7.64454 52.4806C7.81538 52.9077 8.24248 53.2494 8.75499 53.0785L9.2675 52.9077V52.9931C9.18208 53.5056 9.43834 53.9327 9.95086 54.0181C10.4634 54.1035 10.8905 53.8473 10.9759 53.3348L11.1467 52.7369L11.2321 52.2244L12.7697 51.7119L12.428 53.3348L11.9155 53.5056L11.1467 53.7619C10.7196 53.9327 10.5488 54.3598 10.6342 54.7868C10.8051 55.2139 11.2321 55.4702 11.6592 55.3848L11.9155 55.2993L11.8301 55.8972C11.7447 56.4097 12.0009 56.8368 12.5134 56.9222C13.026 57.0076 13.4531 56.7514 13.5385 56.2389L13.6239 55.641L13.7093 55.7264C14.051 56.0681 14.6489 56.0681 14.9906 55.641C15.3323 55.2993 15.3323 54.7014 14.9052 54.3598L14.3927 53.9327L14.051 53.591L14.3927 51.9682L15.5885 53.0785L15.5031 53.591L15.3323 54.3598C15.3323 54.7868 15.5885 55.2139 16.0156 55.2993C16.4427 55.3848 16.8698 55.1285 17.0407 54.7868L17.1261 54.5306L17.5532 54.9577C17.8949 55.2993 18.4928 55.2993 18.8345 54.8723C19.0053 54.4452 19.0053 53.9327 18.5782 53.591Z" fill="#00A2FF"/>
<path opacity="0.2" d="M8.9257 47.0141L9.3528 47.4411H9.26738C8.84028 47.612 8.58402 48.0391 8.66944 48.5515C8.84028 48.9786 9.26738 49.2349 9.7799 49.1494L10.3778 48.9786L10.8904 48.8078L11.7445 49.5765C12.4279 49.6619 13.1967 49.8328 13.9654 50.0036C14.7342 50.1744 15.4176 50.3453 16.1009 50.6015L17.126 50.2598L17.4676 50.6015L18.0656 51.114C18.4073 51.3702 18.9198 51.2848 19.2615 51.0286C19.6031 50.6869 19.6031 50.1744 19.2615 49.8328L19.0906 49.6619L19.6031 49.4911C20.0302 49.3203 20.2865 48.8932 20.2011 48.3807C20.0302 47.9536 19.6031 47.612 19.0906 47.7828L18.5781 47.9536V47.8682C18.6635 47.3557 18.4073 46.9287 17.8947 46.8432C17.3822 46.7578 16.9551 47.0141 16.8697 47.5266L16.6135 48.039L16.528 48.5515L14.9905 49.064L15.3322 47.4411L15.8447 47.2703L16.6135 47.0141C17.0405 46.8432 17.2114 46.4162 17.126 45.9891C16.9551 45.562 16.528 45.3058 16.1009 45.3912L15.8447 45.4766L16.0155 44.8787C16.1009 44.3662 15.8447 43.9391 15.3322 43.8537C14.8196 43.7683 14.3925 44.0245 14.3071 44.537L14.2217 45.1349L14.1363 45.0495C13.7946 44.7079 13.1967 44.7079 12.855 45.1349C12.5133 45.4766 12.5133 46.0745 12.9404 46.4162L13.4529 46.8432L13.7946 47.1849L13.4529 48.8078L12.2571 47.6974L12.3425 47.1849L12.5133 46.4162C12.5133 45.9891 12.2571 45.562 11.83 45.4766C11.4029 45.3912 10.9758 45.6474 10.8049 45.9891L10.7195 46.2453L10.2924 45.8182C9.95074 45.4766 9.35281 45.4766 9.01113 45.9037C8.58403 46.1599 8.58403 46.6724 8.9257 47.0141Z" fill="#B8D9FF"/>
<path d="M58.4691 53.7618L58.042 53.3347H58.1274C58.5545 53.1639 58.8107 52.7368 58.7253 52.2243C58.5545 51.7973 58.1274 51.541 57.6149 51.6264L57.0169 51.7973L56.5044 51.9681L55.3085 50.8577L56.8461 50.3452L57.1878 50.6869L57.7857 51.1994C58.1274 51.4556 58.6399 51.3702 58.9816 51.1139C59.3233 50.7723 59.3233 50.2598 58.9816 49.9181L58.8107 49.7473L59.3233 49.5765C59.7503 49.4056 60.0066 48.9786 59.9212 48.4661C59.7504 48.039 59.3232 47.6973 58.8107 47.8682L58.2982 48.039V47.9536C58.3836 47.4411 58.1274 47.014 57.6149 46.9286C57.1023 46.8432 56.6752 47.0994 56.5898 47.6119L56.419 48.2098L56.3336 48.7223L54.796 49.2348L55.1377 47.6119L55.6502 47.4411L56.419 47.1848C56.8461 47.014 57.0169 46.5869 56.9315 46.1599C56.7607 45.7328 56.3336 45.4765 55.9065 45.562L55.6502 45.6474L55.7356 45.0495C55.821 44.537 55.5648 44.1099 55.0523 44.0245C54.5398 43.9391 54.1127 44.1953 54.0272 44.7078L53.9418 45.3057L53.8564 45.2203C53.5147 44.8786 52.9168 44.8786 52.5751 45.3057C52.2334 45.6474 52.2335 46.2453 52.6605 46.5869L53.173 47.014L53.5147 47.3557L53.173 48.9786L51.9772 47.8682L52.0626 47.3557L52.2335 46.5869C52.2335 46.1599 51.9772 45.7328 51.5501 45.6474C51.123 45.562 50.6959 45.8182 50.5251 46.1599L50.4396 46.4161L50.0125 45.989C49.6709 45.6474 49.0729 45.6474 48.7312 46.0744C48.3896 46.4161 48.3896 47.014 48.8167 47.3557L49.2438 47.7827H49.1583C48.7312 47.9536 48.3896 48.3807 48.5604 48.8931C48.7312 49.3202 49.1584 49.5765 49.6709 49.4911L50.2688 49.3202L50.7813 49.1494L51.9772 50.2598L50.4396 50.7723L50.098 50.4306L49.5 49.9181C49.1583 49.6619 48.6458 49.7473 48.3896 50.0035C48.0479 50.3452 48.0479 50.8577 48.3896 51.1994L48.5604 51.3702L48.0479 51.541C47.6208 51.7119 47.2791 52.1389 47.45 52.6514C47.6208 53.0785 48.0479 53.3347 48.5604 53.2493L49.0729 53.0785V53.1639C48.9875 53.6764 49.2437 54.1035 49.7563 54.1889C50.2688 54.2743 50.6959 54.0181 50.7813 53.5056L50.9522 52.9077L51.0376 52.3952L52.5751 51.8827L52.2335 53.5056L51.7209 53.6764L50.9522 53.9326C50.5251 54.1035 50.3542 54.5306 50.4396 54.9576C50.6105 55.3847 51.0376 55.641 51.4647 55.5555L51.7209 55.4701L51.5501 56.068C51.4647 56.5805 51.7209 57.0076 52.2335 57.093C52.746 57.1784 53.173 56.9222 53.2585 56.4097L53.3439 55.8118L53.4293 55.8972C53.771 56.2389 54.3689 56.2389 54.7106 55.8118C55.0523 55.4701 55.0523 54.8722 54.6252 54.5306L54.1127 54.1035L53.771 53.7618L54.1127 52.1389L55.3085 53.2493L55.2231 53.7618L55.0523 54.5306C55.0523 54.9576 55.3085 55.3847 55.7356 55.4701C56.1627 55.5555 56.5898 55.2993 56.7607 54.9576L56.8461 54.7014L57.2732 55.1285C57.6149 55.4701 58.2128 55.4701 58.5545 55.043C58.8107 54.616 58.8107 54.0181 58.4691 53.7618Z" fill="#007DC4"/>
<path d="M58.469 53.4201L58.0419 52.9931H58.1274C58.5545 52.8222 58.8107 52.3952 58.7253 51.8827C58.5544 51.4556 58.1274 51.1994 57.6148 51.2848L57.0169 51.4556L56.5044 51.6264L55.3085 50.516L56.8461 50.0035L57.1877 50.3452L57.7857 50.8577C58.1274 51.1139 58.6399 51.0285 58.9816 50.7723C59.3232 50.4306 59.3232 49.9181 58.9816 49.5765L58.8107 49.4056L59.3232 49.2348C59.7503 49.064 60.0066 48.6369 59.9212 48.1244C59.7503 47.6973 59.3232 47.3557 58.8107 47.5265L58.2982 47.6973V47.6119C58.3836 47.0994 58.1274 46.6724 57.6148 46.5869C57.1023 46.5015 56.6752 46.7578 56.5898 47.2703L56.419 47.8682L56.3335 48.3806L54.796 48.8931L55.1377 47.2703L55.6502 47.0994L56.419 46.8432C56.8461 46.6724 57.0169 46.2453 56.9315 45.8182C56.7607 45.3911 56.3335 45.1349 55.9064 45.2203L55.6502 45.3057L55.7356 44.7078C55.821 44.1953 55.5648 43.7682 55.0523 43.6828C54.5397 43.5974 54.1126 43.8536 54.0272 44.3661L53.9418 44.964L53.8564 44.8786C53.5147 44.537 52.9168 44.537 52.5751 44.964C52.2334 45.3057 52.2334 45.9036 52.6605 46.2453L53.173 46.6723L53.5147 47.014L53.173 48.6369L51.9771 47.5265L52.0626 47.014L52.2334 46.2453C52.2334 45.8182 51.9771 45.3911 51.5501 45.3057C51.123 45.2203 50.6959 45.4765 50.525 45.8182L50.4396 46.0744L50.0125 45.6474C49.6708 45.3057 49.0729 45.3057 48.7312 45.7328C48.3895 46.0744 48.3895 46.6724 48.8166 47.014L49.2437 47.4411H49.1583C48.7312 47.6119 48.475 48.039 48.5604 48.5515C48.7312 48.9786 49.1583 49.2348 49.6708 49.1494L50.2688 48.9786L50.7813 48.8077L51.9771 49.9181L50.4396 50.4306L50.0979 50.089L49.5 49.5765C49.1583 49.3202 48.6458 49.4056 48.3041 49.6619C47.9624 50.0035 47.9624 50.516 48.3041 50.8577L48.4749 51.0285L47.9625 51.1993C47.5354 51.3702 47.1937 51.7973 47.3645 52.3097C47.5353 52.7368 47.9624 53.0785 48.4749 52.9077L48.9875 52.7368V52.8222C48.9021 53.3347 49.1583 53.7618 49.6708 53.8472C50.1834 53.9326 50.6104 53.6764 50.6959 53.1639L50.8667 52.566L50.9521 52.0535L52.4897 51.541L52.148 53.1639H51.6355L50.8667 53.4201C50.4396 53.591 50.2688 54.0181 50.3542 54.4451C50.525 54.8722 50.9521 55.1284 51.3792 55.043L51.6355 54.9576L51.5501 55.5555C51.4646 56.068 51.7209 56.4951 52.2334 56.5805C52.7459 56.6659 53.173 56.4097 53.2584 55.8972L53.3439 55.2993L53.4293 55.3847C53.771 55.7264 54.3689 55.7264 54.7106 55.2993C55.0523 54.9576 55.0523 54.3597 54.6252 54.0181L54.1126 53.591L53.771 53.2493L54.1126 51.6264L55.3085 52.7368L55.2231 53.2493L55.0523 54.0181C55.0523 54.4451 55.3085 54.8722 55.7356 54.9576C56.1627 55.043 56.5898 54.7868 56.7606 54.4451L56.8461 54.1889L57.2732 54.616C57.6148 54.9576 58.2128 54.9576 58.5545 54.5305C58.8961 54.2743 58.8961 53.7618 58.469 53.4201Z" fill="#00A2FF"/>
<path opacity="0.2" d="M48.8166 46.8432L49.2437 47.2703H49.1583C48.7312 47.4411 48.4749 47.8682 48.5603 48.3807C48.7312 48.8078 49.1583 49.064 49.6708 48.9786L50.2687 48.8078L50.7812 48.6369L51.6354 49.4057C52.3188 49.4911 53.0876 49.6619 53.8563 49.8327C54.6251 50.0036 55.3085 50.1744 55.9918 50.4306L57.0168 50.089L57.3585 50.4306L57.9564 50.9431C58.2981 51.1994 58.8106 51.114 59.1523 50.8577C59.494 50.5161 59.494 50.0036 59.1523 49.6619L58.9815 49.4911L59.494 49.3202C59.9211 49.1494 60.1774 48.7223 60.0919 48.2098C59.9211 47.7828 59.494 47.4411 58.9815 47.6119L58.469 47.7828V47.6974C58.5544 47.1849 58.2981 46.7578 57.7856 46.6724C57.2731 46.587 56.846 46.8432 56.7606 47.3557L56.5897 47.9536L56.5043 48.4661L54.9668 48.9786L55.3084 47.3557L55.821 47.1849L56.5897 46.9286C57.0168 46.7578 57.1877 46.3307 57.1023 45.9036C56.9314 45.4766 56.5043 45.2203 56.0772 45.3057L55.821 45.3911L55.9064 44.7932C55.9918 44.2807 55.7356 43.8537 55.223 43.7683C54.7105 43.6828 54.2834 43.9391 54.198 44.4516L54.1126 45.0495L54.0271 44.9641C53.6855 44.6224 53.0875 44.6224 52.7459 45.0495C52.4042 45.3911 52.4042 45.9891 52.8313 46.3307L53.3438 46.7578L53.6855 47.0994L53.3438 48.7223L52.1479 47.6119L52.2334 47.0994L52.4042 46.3307C52.4042 45.9036 52.1479 45.4766 51.7208 45.3911C51.2937 45.3057 50.8666 45.562 50.6958 45.9036L50.6104 46.1599L50.1833 45.7328C49.8416 45.3912 49.2437 45.3911 48.902 45.8182C48.4749 45.9891 48.4749 46.5016 48.8166 46.8432Z" fill="#B8D9FF"/>
<path d="M40.5309 61.3638L39.933 60.8513L40.1038 60.7658C40.7872 60.595 41.1288 59.9117 40.8726 59.2284C40.7017 58.5451 40.0184 58.2034 39.335 58.4596L38.4809 58.7159L37.7975 58.8867L36.2599 57.4347L38.3954 56.7513L38.908 57.1784L39.6767 57.9471C40.1892 58.2888 40.8726 58.2034 41.2997 57.7763C41.7268 57.3492 41.7268 56.6659 41.3851 56.1534L41.1289 55.8972L41.8976 55.6409C42.581 55.4701 42.9227 54.7868 42.6664 54.1035C42.4956 53.4201 41.8122 53.0785 41.1289 53.3347L40.3601 53.591V53.4201C40.5309 52.7368 40.1038 52.1389 39.4205 51.9681C38.7371 51.7973 38.1392 52.2243 37.9683 52.9076L37.7975 53.7618L37.6267 54.4451L35.4912 55.1284L36.0037 52.9076L36.687 52.7368L37.7121 52.3952C38.2246 52.1389 38.5663 51.541 38.3954 50.9431C38.2246 50.3452 37.6266 50.0035 37.0287 50.0889L36.687 50.1744L36.8579 49.4056C37.0287 48.7223 36.6016 48.1244 35.9183 47.9536C35.2349 47.7827 34.637 48.2098 34.4661 48.8931L34.2953 49.6619L34.1245 49.5765C33.6119 49.1494 32.8432 49.1494 32.4161 49.6619C31.989 50.1744 31.989 50.9431 32.5015 51.3702L33.1848 51.9681L33.6974 52.3952L33.1848 54.6159L31.5619 53.0785L31.7327 52.3952L31.989 51.3702C32.0744 50.7723 31.6473 50.1744 31.0494 50.0889C30.4514 49.9181 29.8535 50.2598 29.5972 50.8577L29.5118 51.1993L28.9139 50.6869C28.4014 50.2598 27.6326 50.2598 27.2055 50.7723C26.7784 51.2848 26.7784 52.0535 27.2909 52.4806L27.8888 52.9931L27.718 53.0785C27.0346 53.2493 26.693 53.9326 26.9492 54.6159C27.1201 55.2993 27.8034 55.6409 28.4868 55.3847L29.341 55.1284L30.0243 54.9576L31.6473 56.4951L29.5118 57.1784L28.9993 56.7513L28.2305 56.068C27.718 55.7263 27.0346 55.8118 26.6075 56.2388C26.1804 56.6659 26.1805 57.3492 26.5221 57.8617L26.7784 58.118L26.0096 58.3742C25.3263 58.5451 24.9846 59.2284 25.2408 59.9117C25.4117 60.595 26.095 60.9367 26.7784 60.6804L27.5472 60.4242V60.595C27.3763 61.2783 27.8034 61.8762 28.4868 62.0471C29.1701 62.2179 29.7681 61.7908 29.9389 61.1075L30.1097 60.2534L30.2806 59.57L32.4161 58.8867L31.9035 61.1075L31.2202 61.2783L30.1952 61.62C29.6826 61.8762 29.341 62.4742 29.5118 63.0721C29.6827 63.67 30.2806 64.0116 30.8785 63.9262L31.2202 63.8408L31.0494 64.6095C30.8785 65.2928 31.3056 65.8908 31.989 66.0616C32.6723 66.2324 33.2703 65.8053 33.4411 65.122L33.6119 64.3533L33.7828 64.4387C34.2953 64.8658 35.0641 64.8658 35.4912 64.3533C35.9183 63.8408 35.9183 63.0721 35.4057 62.645L34.7224 62.0471L34.2099 61.62L34.7224 59.3992L36.3454 60.9367L36.1745 61.62L35.9183 62.645C35.8329 63.2429 36.26 63.8408 36.8579 63.9262C37.4558 64.097 38.0537 63.7554 38.31 63.1575L38.3954 62.8158L38.9934 63.3283C39.5059 63.7554 40.2747 63.7554 40.7018 63.2429C41.0434 62.645 41.0434 61.8762 40.5309 61.3638Z" fill="#007DC4"/>
<path d="M40.6163 60.9367L40.0184 60.4242L40.1892 60.3388C40.8726 60.1679 41.2143 59.4846 40.958 58.8013C40.7872 58.118 40.1038 57.7763 39.4205 58.0326L38.5663 58.2888L37.8829 58.4596L36.2599 56.9222L38.3954 56.2388L38.908 56.6659L39.6767 57.3492C40.1892 57.6909 40.8726 57.6055 41.2997 57.1784C41.7268 56.7513 41.7268 56.068 41.3851 55.5555L41.1289 55.2993L41.8976 55.043C42.581 54.8722 42.9227 54.1889 42.6664 53.5056C42.4956 52.8222 41.8122 52.4806 41.1289 52.7368L40.3601 52.9931V52.8222C40.5309 52.1389 40.1038 51.541 39.4205 51.3702C38.7371 51.1993 38.1392 51.6264 37.9683 52.3097L37.7975 53.1639L37.6267 53.8472L35.4912 54.5305L36.0037 52.3097L36.687 52.1389L37.7121 51.7972C38.2246 51.541 38.5663 50.9431 38.3954 50.3452C38.2246 49.7473 37.6266 49.4056 37.0287 49.491L36.687 49.5765L36.8579 48.8077C37.0287 48.1244 36.6016 47.5265 35.9183 47.3557C35.2349 47.1848 34.637 47.6119 34.4661 48.2952L34.2953 49.064L34.1245 48.9786C33.6119 48.5515 32.8432 48.5515 32.4161 49.064C31.989 49.5765 31.989 50.3452 32.5015 50.7723L33.1848 51.3702L33.6974 51.7972L33.1848 54.018L31.5619 52.4806L31.7327 51.7972L31.989 50.7723C32.0744 50.1744 31.6473 49.5765 31.0494 49.491C30.4514 49.3202 29.8535 49.6619 29.5972 50.2598L29.5118 50.6014L28.9139 50.0889C28.4014 49.6619 27.6326 49.6619 27.2055 50.1744C26.7784 50.6869 26.7784 51.4556 27.2909 51.8827L27.8888 52.3952L27.718 52.4806C27.0346 52.6514 26.693 53.3347 26.9492 54.018C27.1201 54.7014 27.8034 55.043 28.4868 54.7868L29.341 54.5305L30.0243 54.3597L31.6473 55.8972L29.5118 56.5805L28.9993 56.1534L28.2305 55.4701C27.718 55.1284 27.0346 55.2139 26.6075 55.6409C26.1804 56.068 26.1805 56.7513 26.5221 57.2638L26.7784 57.5201L26.0096 57.7763C25.3263 57.9471 24.9846 58.6305 25.2408 59.3138C25.4117 59.9971 26.095 60.3388 26.7784 60.0825L27.5472 59.8263V59.9971C27.3763 60.6804 27.8034 61.2783 28.4868 61.4492C29.1701 61.62 29.7681 61.1929 29.9389 60.5096L30.1097 59.6555L30.2806 58.9721L32.4161 58.2888L31.9035 60.5096L31.2202 60.6804L30.1952 61.0221C29.6826 61.2783 29.341 61.8762 29.5118 62.4741C29.6827 63.0721 30.2806 63.4137 30.8785 63.3283L31.2202 63.2429L31.0494 64.0116C30.8785 64.6949 31.3056 65.2928 31.989 65.4637C32.6723 65.6345 33.2703 65.2074 33.4411 64.5241L33.6119 63.7554L33.7828 63.8408C34.2953 64.2679 35.0641 64.2679 35.4912 63.7554C35.9183 63.2429 35.9183 62.4741 35.4057 62.0471L34.7224 61.4492L34.2099 61.0221L34.7224 58.8013L36.3454 60.3388L36.1745 61.0221L35.9183 62.0471C35.8329 62.645 36.26 63.2429 36.8579 63.3283C37.4558 63.4991 38.0537 63.1575 38.31 62.5596L38.3954 62.2179L38.9934 62.7304C39.5059 63.1575 40.2747 63.1575 40.7018 62.645C41.2143 62.1325 41.1289 61.3638 40.6163 60.9367Z" fill="#00A2FF"/>
<path opacity="0.2" d="M27.291 51.8827L27.8889 52.3952L27.7181 52.4806C27.0348 52.6514 26.6931 53.3348 26.9493 54.0181C27.1202 54.7014 27.8035 55.0431 28.4869 54.7868L29.3411 54.5306L30.0244 54.3597L31.1349 55.3847C32.1599 55.5556 33.0995 55.7264 34.1246 55.9826C35.1496 56.2389 36.1746 56.4951 37.1142 56.7514L38.5664 56.3243L39.0789 56.7514L39.8477 57.4347C40.3602 57.7763 41.0435 57.6909 41.4706 57.2639C41.8977 56.8368 41.8977 56.1535 41.5561 55.641L41.2998 55.3847L42.0686 55.1285C42.7519 54.9576 43.0936 54.2743 42.8374 53.591C42.6665 52.9077 41.9831 52.566 41.2998 52.8223L40.531 53.0785V52.9077C40.7019 52.2244 40.2748 51.6265 39.5914 51.4556C38.908 51.2848 38.3101 51.7119 38.1393 52.3952L37.9684 53.2493L37.7976 53.9327L35.6621 54.616L36.1746 52.3952L36.858 52.2244L37.883 51.8827C38.3955 51.6265 38.7372 51.0285 38.5664 50.4306C38.3955 49.8327 37.7976 49.4911 37.1997 49.5765L36.858 49.6619L37.0288 48.8932C37.1997 48.2098 36.7726 47.6119 36.0892 47.4411C35.4058 47.2703 34.8079 47.6973 34.6371 48.3807L34.4662 49.1494L34.2954 49.064C33.7829 48.6369 33.0141 48.6369 32.587 49.1494C32.1599 49.6619 32.1599 50.4306 32.6724 50.8577L33.3558 51.4556L33.8683 51.8827L33.3558 54.1035L31.7328 52.566L31.9037 51.8827L32.1599 50.8577C32.2453 50.2598 31.8182 49.6619 31.2203 49.5765C30.6224 49.4057 30.0244 49.7473 29.7682 50.3452L29.6828 50.6869L29.0848 50.1744C28.5723 49.7473 27.8035 49.7473 27.3764 50.2598C26.6931 50.6015 26.7785 51.3702 27.291 51.8827Z" fill="#B8D9FF"/>
</svg>
