<svg width="63" height="66" viewBox="0 0 63 66" fill="none" xmlns="http://www.w3.org/2000/svg">
<path d="M36.4704 1.43921C38.3497 5.53914 39.2893 10.4932 39.2893 15.2765C39.2893 33.1282 24.17 47.8197 6.31737 47.8197C4.77982 47.8197 2.72975 46.5384 1.27762 46.2822C1.10678 46.2822 0.850526 46.1968 0.679688 46.1968C5.80485 57.8986 17.849 65.8423 30.8327 65.8423C48.6854 65.8423 62.9504 50.8946 62.9504 33.897C62.865 17.7535 51.9313 3.91625 36.4704 1.43921Z" fill="#D89F00"/>
<path d="M35.6162 0.841309C37.4954 4.94124 38.6059 9.55366 38.6059 14.4223C38.6059 32.2741 24.17 46.7093 6.31734 46.7093C4.60895 46.7093 2.90056 46.5384 1.27759 46.2822C6.40275 57.3862 17.5927 65.0735 30.6619 65.0735C48.5145 65.0735 62.9504 50.6384 62.9504 32.7866C62.865 16.6431 51.0771 3.31835 35.6162 0.841309Z" fill="#FFBB00"/>
<path opacity="0.2" d="M28.9536 37.399C31.3454 37.0573 33.8225 36.8865 36.2997 36.8865C45.9521 36.8865 54.7503 39.2781 61.1567 43.1218C62.2672 39.876 62.8651 36.374 62.8651 32.7866C62.8651 16.6431 51.0773 3.31835 35.6163 0.841309C37.4956 4.94124 38.606 9.55366 38.606 14.4223C38.606 23.3909 34.933 31.5908 28.9536 37.399Z" fill="#FFBB00"/>
</svg>
