<svg width="74" height="64" viewBox="0 0 74 64" fill="none" xmlns="http://www.w3.org/2000/svg">
<path d="M60.0484 15.5209C59.1942 15.5209 58.34 15.6064 57.4858 15.6918C55.7774 12.2752 52.019 9.79812 47.5772 9.79812C47.0647 9.79812 46.6376 9.79812 46.125 9.88354C45.4417 5.1857 41.3416 1.59827 36.4727 1.59827C31.86 1.59827 27.9307 4.84404 26.9057 9.20021C26.1369 9.02938 25.2827 8.85856 24.4285 8.85856C19.3034 8.85856 15.2032 12.7022 14.6907 17.6563C13.2386 16.8876 11.6156 16.3751 9.90722 16.3751C4.52579 16.3751 0.0839844 20.7313 0.0839844 26.1978C0.0839844 31.579 4.44037 36.0206 9.90722 36.0206C10.4197 36.0206 10.8468 35.9352 11.3593 35.9352C12.7261 39.608 16.3137 42.2559 20.4992 42.2559C21.8659 42.2559 23.2326 41.9996 24.3431 41.4871C26.9057 43.9642 31.1766 45.6725 35.9601 45.6725C42.3666 45.6725 47.8334 42.7684 49.5418 38.6684C51.1648 39.8643 53.2149 40.633 55.4358 40.633C59.5359 40.633 63.0381 38.156 64.4902 34.5685C69.4445 33.2019 73.0322 29.6144 73.0322 25.3437C73.1176 19.8771 67.3091 15.5209 60.0484 15.5209Z" fill="#1A485E"/>
<path d="M60.0484 14.8376C59.1942 14.8376 58.34 14.923 57.4858 15.0084C55.7774 11.5918 52.019 9.11477 47.5772 9.11477C47.0647 9.11477 46.6376 9.11477 46.125 9.20019C45.4417 4.50235 41.3416 0.914917 36.4727 0.914917C31.86 0.914917 27.9307 4.16069 26.9057 8.51687C26.1369 8.34604 25.2827 8.17521 24.4285 8.17521C19.3034 8.17521 15.2032 12.0189 14.6907 16.973C13.2386 16.2042 11.6156 15.6917 9.90722 15.6917C4.52579 15.6917 0.0839844 20.0479 0.0839844 25.5145C0.0839844 30.8956 4.44037 35.3372 9.90722 35.3372C10.4197 35.3372 10.8468 35.2518 11.3593 35.2518C12.7261 38.9247 16.3137 41.5725 20.4992 41.5725C21.8659 41.5725 23.2326 41.3163 24.3431 40.8038C26.9057 43.2808 31.1766 44.9892 35.9601 44.9892C42.3666 44.9892 47.8334 42.085 49.5418 37.9851C51.1648 39.1809 53.2149 39.9496 55.4358 39.9496C59.5359 39.9496 63.0381 37.3872 64.4902 33.8852C69.4445 32.5185 73.0322 28.9311 73.0322 24.6603C73.1176 19.1938 67.3091 14.8376 60.0484 14.8376Z" fill="#276C8D"/>
<path opacity="0.15" d="M36.6435 22.8666C50.2252 22.8666 62.6964 24.4041 72.7759 26.9665C73.0322 26.1978 73.203 25.429 73.203 24.5749C73.203 19.1937 67.3091 14.7521 60.1339 14.7521C59.2797 14.7521 58.4255 14.8376 57.5713 14.923C55.8629 11.5064 52.1044 9.02932 47.6626 9.02932C47.1501 9.02932 46.723 9.02932 46.2105 9.11474C45.5271 4.4169 41.427 0.829468 36.5581 0.829468C31.9455 0.829468 28.0162 4.07525 26.9911 8.43142C26.2224 8.26059 25.3682 8.08976 24.514 8.08976C19.3888 8.08976 15.2887 11.9334 14.7762 16.8875C13.324 16.1188 11.7011 15.6063 9.99267 15.6063C4.61124 15.6063 0.169434 19.9625 0.169434 25.429C0.169434 25.9415 0.254853 26.454 0.254853 26.9665C10.3343 24.4895 22.9764 22.8666 36.6435 22.8666Z" fill="#7F8C8D"/>
<path d="M21.2681 56.264C20.4993 58.8265 18.0222 60.3639 15.8013 59.6806C13.5804 58.9973 12.3845 56.3494 13.2387 53.7015C14.0075 51.1391 19.7306 46.9537 19.7306 46.9537C19.7306 46.9537 22.1223 53.7015 21.2681 56.264Z" fill="#007DC4"/>
<path d="M21.3536 55.9223C20.5848 58.4848 18.1076 60.0222 15.8867 59.3389C13.6658 58.6556 12.4699 56.0077 13.3241 53.3599C14.0929 50.7974 19.816 46.6121 19.816 46.6121C19.816 46.6121 22.2078 53.3599 21.3536 55.9223Z" fill="#00A2FF"/>
<path opacity="0.2" d="M17.6805 53.6161C19.0472 54.0432 20.4139 54.5557 21.5243 55.1536C21.7806 52.2495 19.8159 46.6121 19.8159 46.6121C19.8159 46.6121 15.0325 50.1141 13.5803 52.6765C14.8616 52.9328 16.3137 53.189 17.6805 53.6161Z" fill="#7F8C8D"/>
<path d="M55.7776 56.264C55.0089 58.8265 52.5317 60.3639 50.3108 59.6806C48.0899 58.9973 46.894 56.3494 47.7482 53.7015C48.517 51.1391 54.2401 46.9537 54.2401 46.9537C54.2401 46.9537 56.5464 53.7015 55.7776 56.264Z" fill="#007DC4"/>
<path d="M55.8631 55.9223C55.0943 58.4848 52.6171 60.0222 50.3962 59.3389C48.1753 58.6556 46.9795 56.0077 47.8337 53.3599C48.6024 50.7974 54.3255 46.6121 54.3255 46.6121C54.3255 46.6121 56.7173 53.3599 55.8631 55.9223Z" fill="#00A2FF"/>
<path opacity="0.2" d="M52.19 53.6161C53.5567 54.0432 54.9234 54.5557 56.0339 55.1536C56.2901 52.2495 54.3255 46.6121 54.3255 46.6121C54.3255 46.6121 49.542 50.1141 48.0898 52.6765C49.3711 52.9328 50.7378 53.189 52.19 53.6161Z" fill="#7F8C8D"/>
<path d="M39.2917 59.1681C38.3521 62.243 35.3624 64.1221 32.7144 63.268C30.0664 62.4138 28.6143 59.2535 29.6393 56.1785C30.5789 53.1036 37.4979 48.0641 37.4979 48.0641C37.4979 48.0641 40.3167 56.0931 39.2917 59.1681Z" fill="#007DC4"/>
<path d="M39.4626 58.8264C38.523 61.9013 35.5333 63.7805 32.8853 62.9263C30.2373 62.0722 28.7852 58.9118 29.8102 55.8369C30.7498 52.7619 37.6688 47.7224 37.6688 47.7224C37.6688 47.7224 40.4022 55.7514 39.4626 58.8264Z" fill="#00A2FF"/>
<path opacity="0.2" d="M35.0208 56.0931C36.7292 56.6056 38.2667 57.2889 39.6334 57.9722C39.9751 54.4702 37.5833 47.7224 37.5833 47.7224C37.5833 47.7224 31.8602 51.9077 30.1519 55.0681C31.6894 55.2389 33.3124 55.5806 35.0208 56.0931Z" fill="#7F8C8D"/>
</svg>
